<?xml version="1.0" encoding="utf-8"?>
<!-- Generator: Adobe Illustrator 29.7.1, SVG Export Plug-In . SVG Version: 9.03 Build 0)  -->
<svg version="1.0" id="svg17038" xmlns:svg="http://www.w3.org/2000/svg"
	 xmlns="http://www.w3.org/2000/svg" xmlns:xlink="http://www.w3.org/1999/xlink" x="0px" y="0px" viewBox="0 0 298.72 55.52"
	 style="enable-background:new 0 0 298.72 55.52;" xml:space="preserve">
<style type="text/css">
	.st0{fill:#FFFFFF;}
</style>
<g id="layer1" transform="translate(620.34041,-56.426733)">
	<g id="logotype" transform="translate(0.4494891,0.3945659)">
		<g id="g17202">
			<g id="logo">
				<path id="logo-ne" class="st0" d="M-358.86,56.31c-1.07,0-1.94,0.87-1.94,1.94v13.61h35.94l-16.37-15.55L-358.86,56.31"/>
				<path id="logo-se" class="st0" d="M-323.55,75.97c0-1.07-0.86-1.94-1.94-1.94h-13.6v35.94l15.54-16.37L-323.55,75.97"/>
				<path id="logo-sw" class="st0" d="M-343.21,111.27c1.07,0,1.94-0.87,1.94-1.94v-13.6h-35.94l16.37,15.54L-343.21,111.27"/>
				<path id="logo-nw" class="st0" d="M-378.53,91.61c0,1.07,0.87,1.95,1.94,1.95h13.6V57.62l-15.54,16.37L-378.53,91.61"/>
			</g>
			<g id="type">
				<path id="H" class="st0" d="M-543.27,62.87v16.6h-23.12v-16.6l-8.42-0.01v41.85h8.42V86.73h23.12v17.98h8.44V62.87H-543.27"/>
				<path id="E" class="st0" d="M-431.22,62.87v41.84h36.95l-4.68-7.36h-23.82V86.73h23.07v-7.09h-23.07v-9.58h23.79l4.58-7.19
					H-431.22"/>
				<path id="C" class="st0" d="M-606.12,62.86c-8.76,0-13.19,5.33-13.19,13.08v15.62c0,8.97,5.7,13.16,13.14,13.16l26.43,0
					l-4.9-7.65h-19.89c-4.23,0-6.07-1.53-6.07-6.26V76.63c0-4.57,1.55-6.36,6.18-6.36h19.99l4.7-7.42H-606.12"/>
				<path id="S" class="st0" d="M-468.18,62.85c-5.06,0-10.25,3.04-10.25,10.86v2.01c0,8.16,4.99,11.27,9.98,11.29h17.52
					c1.82,0,3.3,0.3,3.3,3.38l0,3.55c-0.05,2.76-1.42,3.4-3.36,3.4h-23.05l-4.72,7.36h28.32c6.83,0,11.47-3.4,11.47-11.25v-2.88
					c0-7.59-4.31-11.17-10.99-11.17h-16.73c-1.86,0-3.15-0.51-3.15-3.25v-2.89c0-2.34,0.89-3.19,3.05-3.19l21.96-0.01l4.59-7.21
					L-468.18,62.85"/>
				<path id="A" class="st0" d="M-510.36,62.87l-19.84,41.84h9.38l3.86-8.64h21.56l3.85,8.64h9.42l-19.89-41.84H-510.36z
					 M-506.2,71.56l7.63,17.39h-15.2L-506.2,71.56"/>
			</g>
		</g>
	</g>
</g>
</svg>
