<?xml version="1.0" encoding="UTF-8"?>
<svg id="svg16" xmlns="http://www.w3.org/2000/svg" xmlns:svg="http://www.w3.org/2000/svg" xmlns:sodipodi="http://sodipodi.sourceforge.net/DTD/sodipodi-0.dtd" xmlns:rdf="http://www.w3.org/1999/02/22-rdf-syntax-ns#" xmlns:inkscape="http://www.inkscape.org/namespaces/inkscape" xmlns:dc="http://purl.org/dc/elements/1.1/" xmlns:cc="http://creativecommons.org/ns#" version="1.1" viewBox="0 0 102.76 39">
  <!-- Generator: Adobe Illustrator 29.7.1, SVG Export Plug-In . SVG Version: 2.1.1 Build 8)  -->
  <defs>
    <style>
      .st0 {
        fill: #fff;
      }
    </style>
  </defs>
  <sodipodi:namedview id="namedview18" bordercolor="#666666" borderopacity="1.0" fit-margin-bottom="0" fit-margin-left="0" fit-margin-right="0" fit-margin-top="0" inkscape:current-layer="svg16" inkscape:cx="67.573291" inkscape:cy="22.003204" inkscape:pagecheckerboard="0" inkscape:pageopacity="0.0" inkscape:pageshadow="2" inkscape:window-height="1011" inkscape:window-maximized="1" inkscape:window-width="1920" inkscape:window-x="0" inkscape:window-y="0" inkscape:zoom="4.4766208" pagecolor="#ffffff" showgrid="false"/>
  <g id="g14">
    <path id="path4" class="st0" d="M27.08,14.89c-.52.28-1.05.52-1.61.73-1.19.43-2.42.65-3.68.73-.27.02-.55.04-.82.04-.14,0-.19.05-.18.19,0,.07,0,.13,0,.2v11.53q0,.33-.33.33c-1.39,0-2.78,0-4.17,0-.23,0-.28-.07-.28-.29,0-3.87,0-7.75,0-11.62,0-.31,0-.32-.32-.32-2.09.01-4.19-.03-6.28.03-.71.02-1.41.15-2.08.4-1.32.49-2.03,1.49-2.34,2.82-.16.7-.21,1.42-.21,2.13,0,2.18,0,4.36,0,6.54,0,.3,0,.3-.3.3-1.4,0-2.8,0-4.19,0C.06,28.64,0,28.57,0,28.35,0,19.14,0,9.93,0,.72c0-.29,0-.3.3-.3h4.19c.29,0,.29,0,.29.3v12.61c.09.05.12-.02.17-.05,1.25-.89,2.65-1.39,4.15-1.62.84-.13,1.69-.17,2.54-.17,1.35,0,2.71,0,4.06,0q.32,0,.32-.31V.76c0-.34,0-.34.33-.34h4.15c.29,0,.29,0,.29.3v10.47c0,.31,0,.32.31.31.89,0,1.79.01,2.68-.09,1.86-.2,3.2-1.13,4.02-2.8.11-.22.2-.24.42-.16,1.13.45,2.27.88,3.42,1.31.18.07.25.15.25.35,0,6.08,0,12.17,0,18.25,0,.23-.07.28-.29.28-1.4,0-2.8,0-4.19,0-.3,0-.3,0-.3-.31v-13.13c0-.09.02-.19-.04-.31Z"/>
    <path id="path6" class="st0" d="M74.01,27.03c-.06-.02-.1.03-.13.06-1.43,1.14-3.06,1.76-4.88,1.9-1.92.15-3.78-.14-5.52-.98-2.48-1.2-4.04-3.19-4.83-5.8-.45-1.49-.57-3.02-.46-4.58.13-1.73.56-3.36,1.46-4.85,1.38-2.3,3.43-3.67,6.03-4.26.89-.2,1.81-.29,2.73-.26,2.32.07,4.34.86,6.04,2.46.04.04.09.08.15.13.11-.25.11-.51.15-.76.07-.41.13-.82.19-1.22.03-.18.09-.26.29-.26,1.14.01,2.28,0,3.42,0,.2,0,.27.06.27.26,0,6.86.04,13.72.02,20.58-.01,2.91-1.11,5.38-3.38,7.27-1.24,1.03-2.69,1.65-4.26,1.97-2.16.44-4.32.47-6.45-.16-2.89-.86-5-2.66-6.29-5.4-.1-.23-.19-.47-.25-.71-.03-.12,0-.19.13-.22,1.33-.37,2.66-.74,3.99-1.11.11-.03.16-.01.2.1.41,1.44,1.4,2.37,2.72,2.97,1.01.46,2.1.58,3.21.51.96-.06,1.89-.23,2.77-.65,1.71-.81,2.66-2.15,2.74-4.05.04-.92.01-1.85.02-2.77,0-.05.01-.11-.04-.16ZM74.17,18.47c.01-.33-.04-.82-.14-1.31-.37-1.75-1.31-3.09-2.96-3.85-1.2-.56-2.47-.65-3.75-.41-1.76.32-3.08,1.26-3.84,2.9-.78,1.68-.82,3.43-.22,5.18.54,1.56,1.61,2.63,3.17,3.19.95.34,1.93.41,2.93.29,1.6-.19,2.91-.91,3.82-2.26.72-1.07.99-2.27.99-3.72h0Z"/>
    <path id="path8" class="st0" d="M87.03,20.34c.1.49.29.97.55,1.4.85,1.43,2.11,2.27,3.73,2.57,1.55.29,3.08.17,4.53-.5.85-.4,1.55-1,2.2-1.67.06-.06.11-.14.21-.17l3.1,3.18c.05.02,0,.06-.04.1-1.57,1.65-3.41,2.85-5.66,3.35-1.42.31-2.87.42-4.32.3-1.63-.12-3.15-.56-4.55-1.4-2.21-1.34-3.58-3.3-4.25-5.78-.31-1.16-.44-2.36-.39-3.55.08-2.2.64-4.26,1.97-6.06,1.38-1.86,3.23-3.01,5.47-3.54,2.28-.53,4.54-.44,6.75.33,3.21,1.13,5.21,3.4,6.05,6.68.38,1.47.48,2.97.24,4.48-.03.21-.11.28-.32.28-4.99,0-9.97,0-14.95,0h-.32ZM87.14,16.44h10.59c.04-.07,0-.11,0-.15-.49-1.39-1.39-2.42-2.74-3.04-1.1-.51-2.26-.61-3.45-.45-1.34.17-2.49.74-3.37,1.77-.47.55-.82,1.18-1.03,1.87h0Z"/>
    <path id="path10" class="st0" d="M41.28,10.66c.15-.13.3-.27.45-.4,1.22-1.04,2.61-1.76,4.21-1.94,2.38-.26,4.48.4,6.2,2.1,1.32,1.31,2.03,2.93,2.38,4.74.17.86.21,1.73.21,2.6v10.51q0,.36-.36.36h-4.13c-.34,0-.34,0-.34-.34v-10.4c0-.82-.05-1.62-.29-2.41-.47-1.59-1.69-2.56-3.34-2.7-.69-.06-1.38-.05-2.05.11-1.38.34-2.21,1.24-2.61,2.57-.24.79-.29,1.61-.29,2.43v10.33c0,.49-.02.39-.4.39-1.37,0-2.74,0-4.1,0-.29,0-.29,0-.29-.3V8.91c0-.31,0-.31.3-.31h3.84c.33,0,.33,0,.36.32.06.54.12,1.09.19,1.63,0,.02,0,.04.02.06.01.02.03.03.05.04Z"/>
    <path id="path12" class="st0" d="M26.85,2.87C26.85,1.26,28.14,0,29.75,0c1.58,0,2.85,1.3,2.85,2.9,0,.76-.31,1.49-.86,2.03-.54.54-1.28.83-2.04.83-.76,0-1.49-.31-2.03-.86-.54-.54-.83-1.28-.83-2.04h0Z"/>
  </g>
</svg>