<svg width="1080" height="1080" viewBox="0 0 1080 1080" fill="none" xmlns="http://www.w3.org/2000/svg">
<path d="M856.524 223.653V0H786.708V223.653H563.232V293.524H786.708V517.175H856.524V293.524H1080V223.653H856.524Z" fill="#FF1C24"/>
<path d="M287.703 975.984L54.3661 742.463L0 796.873L282.904 1080L496.887 865.846L447.321 816.24L287.703 975.984Z" fill="#969698"/>
<path d="M495.671 300.807L441.251 355.268L606.986 521.081C637.835 552.007 639.996 572.376 639.205 595.279C638.835 620.558 623.385 647.05 600.447 670.27C577.245 693.438 551.143 708.267 525.937 708.689C502.999 709.481 483.225 706.789 452.113 675.864L286.537 510.157L232.013 564.671L393.529 726.315C446.261 779.088 486.072 787.322 528.575 784.946C567.596 782.624 610.678 760.83 650.648 720.984C690.617 681.141 712.818 637.34 715.086 598.288C717.459 555.753 709.813 515.222 657.08 462.556L495.671 300.807Z" fill="#969698"/>
</svg>
