<svg xmlns="http://www.w3.org/2000/svg" viewBox="0 0 120 33.68" overflow="visible">
  <path
    d="M 15.094 32.888 L 10.146 11.787 C 10.053 11.423 9.518 11.49 9.518 11.865 L 9.518 32.766 C 9.518 33.042 9.294 33.266 9.018 33.266 L 0.5 33.266 C 0.224 33.266 0 33.042 0 32.766 L 0 1.356 C 0 1.08 0.224 0.856 0.5 0.856 L 18.93 0.856 C 19.166 0.855 19.37 1.02 19.42 1.25 L 21.978 13.882 C 22.023 14.091 22.319 14.092 22.367 13.883 L 25.015 1.247 C 25.066 1.019 25.269 0.857 25.502 0.857 L 42.575 0.857 C 42.708 0.857 42.835 0.91 42.929 1.004 C 43.023 1.098 43.075 1.225 43.075 1.358 L 43.075 32.766 C 43.075 33.042 42.851 33.266 42.575 33.266 L 31.422 33.266 C 31.146 33.266 30.922 33.042 30.922 32.766 L 30.922 12.368 C 30.922 11.993 30.386 11.925 30.295 12.29 L 25.495 32.888 C 25.439 33.11 25.238 33.266 25.009 33.265 L 15.579 33.265 C 15.35 33.265 15.15 33.11 15.094 32.888 Z M 89.631 18.027 L 89.631 32.862 C 89.63 33.084 89.45 33.264 89.228 33.264 L 77.938 33.264 C 77.715 33.264 77.535 33.084 77.535 32.861 L 77.535 17.855 C 77.418 14.195 72.685 14.465 72.847 18.098 L 72.849 32.598 C 72.849 32.966 72.551 33.264 72.183 33.264 L 61.367 33.264 C 61 33.264 60.702 32.966 60.701 32.599 L 60.701 10.88 C 60.701 10.61 60.921 10.39 61.192 10.39 L 71.72 10.39 C 71.991 10.39 72.211 10.61 72.211 10.88 L 72.211 12.737 C 72.211 13.033 72.595 13.146 72.756 12.898 C 72.76 12.891 72.765 12.884 72.77 12.878 C 74.177 10.998 76.016 9.708 80.308 9.708 C 88.154 9.708 89.633 12.918 89.633 18.026 C 89.633 18.026 89.633 18.027 89.633 18.026 Z M 45.755 32.727 L 45.755 18.501 C 45.755 18.203 46.022 17.962 46.351 17.962 L 57.31 17.962 C 57.64 17.962 57.906 18.203 57.906 18.501 L 57.906 32.727 C 57.906 33.025 57.639 33.266 57.31 33.266 L 46.351 33.266 C 46.021 33.266 45.755 33.025 45.755 32.727 Z M 119.309 23.657 L 103.665 23.657 C 103.513 23.654 103.388 23.773 103.384 23.925 L 103.384 26.3 C 103.384 28.023 105.129 29.01 107.075 28.438 C 108.275 28.086 108.475 27.08 108.475 25.686 C 108.475 25.127 108.715 24.944 109.244 24.944 L 119.308 24.944 C 119.632 24.944 119.891 25.199 119.885 25.508 C 119.859 26.912 119.493 28.214 118.619 29.429 C 116.387 32.533 112.818 33.39 109.334 33.584 C 105.897 33.774 101.874 33.777 98.59 32.671 C 96.13 31.845 94.18 30.191 93.03 27.951 C 91.326 24.628 91.276 19.957 92.397 16.742 C 93.857 12.559 97.721 10.448 103.056 9.914 C 107.519 9.467 113.256 9.736 116.899 12.628 C 120.298 15.325 120.019 19.229 119.978 23.026 C 119.975 23.376 119.676 23.658 119.31 23.658 L 119.309 23.658 Z M 104.044 19.207 L 107.814 19.207 C 108.179 19.207 108.474 18.924 108.474 18.575 L 108.474 17.467 C 108.474 14.627 103.383 14.709 103.383 17.515 L 103.383 18.575 C 103.383 18.924 103.678 19.206 104.043 19.206 L 104.044 19.206 Z M 58.714 8.14 L 58.714 8.141 C 58.554 11.396 56.576 14.496 53.587 15.853 C 53.491 15.897 51.801 16.47 51.801 16.277 L 51.801 13.957 C 51.801 13.831 51.701 13.732 51.574 13.727 C 47.873 13.605 44.936 10.569 44.935 6.866 C 44.935 3.15 48.011 0 51.803 0 C 54.368 0 56.72 1.692 57.858 3.937 C 58.518 5.239 58.785 6.694 58.715 8.14 Z"
    fill="rgb(60,61,59)"
  ></path>
</svg>
