<svg width="367" height="347" viewBox="0 0 367 347" fill="none" xmlns="http://www.w3.org/2000/svg">
<path d="M366.525 101.833H346.077V244.438H366.525V101.833Z" fill="#0045FF" fill-opacity="0.1"/>
<path d="M346.104 244.442H325.789V264.756H346.104V244.442Z" fill="#0045FF" fill-opacity="0.1"/>
<path d="M346.104 81.5468H325.789V101.862H346.104V81.5468Z" fill="#0045FF" fill-opacity="0.1"/>
<path d="M325.779 101.833H285.016V122.148H325.779V101.833Z" fill="#0045FF" fill-opacity="0.1"/>
<path d="M325.779 264.728H285.016V285.177H325.779V264.728Z" fill="#0045FF" fill-opacity="0.1"/>
<path d="M305.482 81.5366V61.0881H285.034V40.7733H244.404V61.0881H223.956V81.5366H244.404V101.851H285.034V81.5366H305.482Z" fill="#0045FF" fill-opacity="0.1"/>
<path d="M285.071 122.12H244.441V142.568H285.071V122.12Z" fill="#0045FF" fill-opacity="0.1"/>
<path d="M285.071 285.215H244.441V305.53H285.071V285.215Z" fill="#0045FF" fill-opacity="0.1"/>
<path d="M203.658 346.263V325.815H244.421V305.5H203.658V162.895H162.895V183.343H183.209V325.815H162.895V346.263H203.658Z" fill="#0045FF" fill-opacity="0.1"/>
<path d="M244.431 142.607H203.668V162.921H244.431V142.607Z" fill="#0045FF" fill-opacity="0.1"/>
<path d="M203.685 122.176H224V101.862H203.685V81.5468H162.922V101.862H142.607V122.176H162.922V142.625H203.685V122.176Z" fill="#0045FF" fill-opacity="0.1"/>
<path d="M162.922 0V20.4485H142.607V40.7633H162.922V61.0781H203.685V40.7633H224V20.4485H203.685V0H162.922Z" fill="#0045FF" fill-opacity="0.1"/>
<path d="M162.885 305.502H122.121V325.817H162.885V305.502Z" fill="#0045FF" fill-opacity="0.1"/>
<path d="M162.885 142.607H122.121V162.921H162.885V142.607Z" fill="#0045FF" fill-opacity="0.1"/>
<path d="M122.176 285.215H81.5465V305.53H122.176V285.215Z" fill="#0045FF" fill-opacity="0.1"/>
<path d="M122.139 81.5366H142.588V61.0881H122.139V40.7733H81.5098V61.0881H61.0613V81.5366H81.5098V101.851H122.139V81.5366Z" fill="#0045FF" fill-opacity="0.1"/>
<path d="M122.176 122.12H81.5465V142.568H122.176V122.12Z" fill="#0045FF" fill-opacity="0.1"/>
<path d="M81.5366 264.728H40.7733V285.177H81.5366V264.728Z" fill="#0045FF" fill-opacity="0.1"/>
<path d="M81.5366 101.833H40.7733V122.148H81.5366V101.833Z" fill="#0045FF" fill-opacity="0.1"/>
<path d="M40.735 244.442H20.2865V264.756H40.735V244.442Z" fill="#0045FF" fill-opacity="0.1"/>
<path d="M40.735 81.5468H20.2865V101.862H40.735V81.5468Z" fill="#0045FF" fill-opacity="0.1"/>
<path d="M20.3148 101.833H0V244.438H20.3148V101.833Z" fill="#0045FF" fill-opacity="0.1"/>
</svg>
