<svg width="351" height="332" viewBox="0 0 351 332" fill="none" xmlns="http://www.w3.org/2000/svg">
<path d="M351 97.5198H331.418V234.084H351V97.5198Z" fill="#AD1DE0" fill-opacity="0.1"/>
<path d="M331.444 234.088H311.989V253.542H331.444V234.088Z" fill="#AD1DE0" fill-opacity="0.1"/>
<path d="M331.444 78.0926H311.989V97.5469H331.444V78.0926Z" fill="#AD1DE0" fill-opacity="0.1"/>
<path d="M311.979 97.5198H272.943V116.974H311.979V97.5198Z" fill="#AD1DE0" fill-opacity="0.1"/>
<path d="M311.979 253.515H272.943V273.097H311.979V253.515Z" fill="#AD1DE0" fill-opacity="0.1"/>
<path d="M292.542 78.0829V58.5006H272.96V39.0463H234.052V58.5006H214.469V78.0829H234.052V97.5372H272.96V78.0829H292.542Z" fill="#AD1DE0" fill-opacity="0.1"/>
<path d="M272.996 116.947H234.087V136.53H272.996V116.947Z" fill="#AD1DE0" fill-opacity="0.1"/>
<path d="M272.996 273.134H234.087V292.588H272.996V273.134Z" fill="#AD1DE0" fill-opacity="0.1"/>
<path d="M195.031 331.596V312.014H234.068V292.559H195.031V155.995H155.995V175.577H175.449V312.014H155.995V331.596H195.031Z" fill="#AD1DE0" fill-opacity="0.1"/>
<path d="M234.078 136.566H195.041V156.02H234.078V136.566Z" fill="#AD1DE0" fill-opacity="0.1"/>
<path d="M195.057 117.001H214.511V97.5469H195.057V78.0926H156.02V97.5469H136.566V117.001H156.02V136.583H195.057V117.001Z" fill="#AD1DE0" fill-opacity="0.1"/>
<path d="M156.02 0V19.5823H136.566V39.0366H156.02V58.4909H195.057V39.0366H214.511V19.5823H195.057V0H156.02Z" fill="#AD1DE0" fill-opacity="0.1"/>
<path d="M155.985 292.561H116.948V312.015H155.985V292.561Z" fill="#AD1DE0" fill-opacity="0.1"/>
<path d="M155.985 136.566H116.948V156.02H155.985V136.566Z" fill="#AD1DE0" fill-opacity="0.1"/>
<path d="M117.001 273.134H78.0924V292.588H117.001V273.134Z" fill="#AD1DE0" fill-opacity="0.1"/>
<path d="M116.966 78.0829H136.548V58.5006H116.966V39.0463H78.057V58.5006H58.4747V78.0829H78.057V97.5372H116.966V78.0829Z" fill="#AD1DE0" fill-opacity="0.1"/>
<path d="M117.001 116.947H78.0924V136.53H117.001V116.947Z" fill="#AD1DE0" fill-opacity="0.1"/>
<path d="M78.0829 253.515H39.0463V273.097H78.0829V253.515Z" fill="#AD1DE0" fill-opacity="0.1"/>
<path d="M78.0829 97.5198H39.0463V116.974H78.0829V97.5198Z" fill="#AD1DE0" fill-opacity="0.1"/>
<path d="M39.0096 234.088H19.4272V253.542H39.0096V234.088Z" fill="#AD1DE0" fill-opacity="0.1"/>
<path d="M39.0096 78.0926H19.4272V97.5469H39.0096V78.0926Z" fill="#AD1DE0" fill-opacity="0.1"/>
<path d="M19.4543 97.5198H0V234.084H19.4543V97.5198Z" fill="#AD1DE0" fill-opacity="0.1"/>
</svg>
