<svg width="61" height="64" viewBox="0 0 61 64" fill="none" xmlns="http://www.w3.org/2000/svg">
<path d="M60.96 36.56H57.9V60.94H60.96V36.56Z" fill="#9319BE"/>
<path d="M60.96 21.34H57.9V24.38H60.96V21.34Z" fill="#9319BE"/>
<path d="M57.9 24.38H54.86V27.42H57.9V24.38Z" fill="#9319BE"/>
<path d="M57.9 18.28H54.86V21.34H57.9V18.28Z" fill="#9319BE"/>
<path d="M57.9 60.94H9.14001V64H57.9V60.94Z" fill="#9319BE"/>
<path d="M54.8601 27.42H51.8V30.48H54.8601V27.42Z" fill="#9319BE"/>
<path d="M54.8601 15.24H51.8V18.28H54.8601V15.24Z" fill="#9319BE"/>
<path d="M54.86 39.62H39.62V57.9H54.86V39.62ZM51.8 54.86H42.66V42.66H51.8V54.86Z" fill="#9319BE"/>
<path d="M48.76 33.52H45.72V30.48H48.76V27.42H51.8V24.38H54.86V21.34H51.8V18.28H48.76V15.24H45.72V12.18H42.66V15.24H39.62V18.28H36.58V21.34H33.52V24.38H36.58V27.42H39.62V30.48H42.66V33.52H33.52V30.48H30.48V27.42H27.42V30.48H24.38V33.52H21.34V30.48H18.28V33.52H6.09998V39.62H9.13998V36.56H57.9V33.52H51.8V30.48H48.76V33.52Z" fill="#9319BE"/>
<path d="M51.8 12.18H48.76V15.24H51.8V12.18Z" fill="#9319BE"/>
<path d="M48.76 9.14001H45.72V12.18H48.76V9.14001Z" fill="#9319BE"/>
<path d="M45.72 6.10001H42.66V9.14001H45.72V6.10001Z" fill="#9319BE"/>
<path d="M42.66 9.14001H39.62V12.18H42.66V9.14001Z" fill="#9319BE"/>
<path d="M39.62 12.18H36.58V15.24H39.62V12.18Z" fill="#9319BE"/>
<path d="M36.58 15.24H33.52V18.28H36.58V15.24Z" fill="#9319BE"/>
<path d="M36.58 39.62H21.34V57.9H36.58V39.62ZM33.52 54.86H24.38V42.66H33.52V54.86Z" fill="#9319BE"/>
<path d="M27.42 24.38H30.48V21.34H33.52V18.28H30.48V3.04001H27.42V24.38Z" fill="#9319BE"/>
<path d="M27.42 24.38H24.38V27.42H27.42V24.38Z" fill="#9319BE"/>
<path d="M24.38 27.42H21.34V30.48H24.38V27.42Z" fill="#9319BE"/>
<path d="M6.09998 24.38V30.48H9.13998V27.42H21.34V24.38H6.09998Z" fill="#9319BE"/>
<path d="M18.28 45.72H15.24V51.8H18.28V45.72Z" fill="#9319BE"/>
<path d="M15.24 42.66H9.14001V45.72H15.24V42.66Z" fill="#9319BE"/>
<path d="M15.24 51.8H9.14001V54.86H15.24V51.8Z" fill="#9319BE"/>
<path d="M24.38 21.34V6.10001H6.09998V21.34H24.38ZM9.13998 9.14001H21.34V18.28H9.13998V9.14001Z" fill="#9319BE"/>
<path d="M9.13998 57.9H6.09998V60.94H9.13998V57.9Z" fill="#9319BE"/>
<path d="M9.13998 45.72H6.09998V51.8H9.13998V45.72Z" fill="#9319BE"/>
<path d="M27.42 0H3.04004V3.04H27.42V0Z" fill="#9319BE"/>
<path d="M6.10004 54.86H3.04004V57.9H6.10004V54.86Z" fill="#9319BE"/>
<path d="M3.04 42.66H6.1V39.62H3.04V3.04001H0V54.86H3.04V42.66Z" fill="#9319BE"/>
</svg>
