<svg width="64" height="40" viewBox="0 0 64 40" fill="none" xmlns="http://www.w3.org/2000/svg">
<path d="M60.96 18.28H57.9V24.38H54.86V27.42H60.96V36.56H64V24.38H60.96V18.28Z" fill="#9319BE"/>
<path d="M57.9 33.52H54.86V36.56H45.72V33.52H42.66V36.56H33.52V33.52H30.48V36.56H21.34V33.52H18.28V36.56H9.14004V33.52H6.10004V36.56H3.04004V39.62H60.96V36.56H57.9V33.52Z" fill="#9319BE"/>
<path d="M57.9 12.18H54.86V18.28H57.9V12.18Z" fill="#9319BE"/>
<path d="M54.8601 9.14001H51.8V12.18H54.8601V9.14001Z" fill="#9319BE"/>
<path d="M51.8 12.18H48.76V15.24H51.8V12.18Z" fill="#9319BE"/>
<path d="M51.8 6.10001H48.76V9.14001H51.8V6.10001Z" fill="#9319BE"/>
<path d="M45.72 18.28H42.66V24.38H21.34V18.28H18.28V24.38H15.24V27.42H48.76V24.38H45.72V18.28Z" fill="#9319BE"/>
<path d="M48.76 3.04001H42.66V6.10001H48.76V3.04001Z" fill="#9319BE"/>
<path d="M42.66 15.24H39.62V18.28H42.66V15.24Z" fill="#9319BE"/>
<path d="M42.66 6.10001H39.62V9.14001H42.66V6.10001Z" fill="#9319BE"/>
<path d="M39.62 12.18H24.38V15.24H39.62V12.18Z" fill="#9319BE"/>
<path d="M30.48 3.04V9.14H33.52V3.04H42.66V0H21.34V3.04H30.48Z" fill="#9319BE"/>
<path d="M24.38 15.24H21.34V18.28H24.38V15.24Z" fill="#9319BE"/>
<path d="M24.38 6.10001H21.34V9.14001H24.38V6.10001Z" fill="#9319BE"/>
<path d="M21.34 3.04001H15.24V6.10001H21.34V3.04001Z" fill="#9319BE"/>
<path d="M15.24 12.18H12.2V15.24H15.24V12.18Z" fill="#9319BE"/>
<path d="M15.24 6.10001H12.2V9.14001H15.24V6.10001Z" fill="#9319BE"/>
<path d="M12.2 9.14001H9.14001V12.18H12.2V9.14001Z" fill="#9319BE"/>
<path d="M9.13998 12.18H6.09998V18.28H9.13998V12.18Z" fill="#9319BE"/>
<path d="M3.04 27.42H9.14V24.38H6.1V18.28H3.04V24.38H0V36.56H3.04V27.42Z" fill="#9319BE"/>
</svg>
