<svg width="64" height="64" viewBox="0 0 64 64" fill="none" xmlns="http://www.w3.org/2000/svg">
<path d="M60.96 0H42.66V3.06H39.62V21.34H3.04V24.38H39.62V33.54H42.66V45.72H3.04V24.38H0V51.82H3.04V48.78H42.66V51.82H45.72V36.58H60.96V33.54H64V3.06H60.96V0ZM48.76 3.06H54.86V6.1H48.76V3.06ZM60.96 30.48H42.66V6.1H45.72V9.16H57.9V6.1H60.96V30.48Z" fill="#9319BE"/>
<path d="M57.9001 18.3H54.8601V21.34H57.9001V18.3Z" fill="#9319BE"/>
<path d="M57.9001 12.2H54.8601V15.24H57.9001V12.2Z" fill="#9319BE"/>
<path d="M54.86 21.34H48.76V24.38H54.86V21.34Z" fill="#9319BE"/>
<path d="M48.76 18.3H45.72V21.34H48.76V18.3Z" fill="#9319BE"/>
<path d="M48.76 12.2H45.72V15.24H48.76V12.2Z" fill="#9319BE"/>
<path d="M3.04004 51.82V54.86H15.24V57.92H18.28V54.86H27.42V57.92H30.48V54.86H42.66V51.82H3.04004Z" fill="#9319BE"/>
<path d="M39.6201 33.54H36.5801V36.58H39.6201V33.54Z" fill="#9319BE"/>
<path d="M36.58 36.58H33.52V39.62H36.58V36.58Z" fill="#9319BE"/>
<path d="M36.58 30.48H33.52V33.54H36.58V30.48Z" fill="#9319BE"/>
<path d="M33.52 39.62H30.48V42.68H33.52V39.62Z" fill="#9319BE"/>
<path d="M33.52 27.44H30.48V30.48H33.52V27.44Z" fill="#9319BE"/>
<path d="M15.24 60.96V57.92H12.2V64H33.52V57.92H30.4799V60.96H15.24Z" fill="#9319BE"/>
<path d="M27.4199 27.44H24.3799V33.54H27.4199V27.44Z" fill="#9319BE"/>
<path d="M24.3801 33.54H21.3401V36.58H24.3801V33.54Z" fill="#9319BE"/>
<path d="M21.34 36.58H18.28V42.68H21.34V36.58Z" fill="#9319BE"/>
<path d="M15.24 39.62H12.2V42.68H15.24V39.62Z" fill="#9319BE"/>
<path d="M15.24 27.44H12.2V30.48H15.24V27.44Z" fill="#9319BE"/>
<path d="M12.2001 36.58H9.14014V39.62H12.2001V36.58Z" fill="#9319BE"/>
<path d="M12.2001 30.48H9.14014V33.54H12.2001V30.48Z" fill="#9319BE"/>
<path d="M9.1401 33.54H6.1001V36.58H9.1401V33.54Z" fill="#9319BE"/>
</svg>
