<svg width="61" height="61" viewBox="0 0 61 61" fill="none" xmlns="http://www.w3.org/2000/svg">
<path d="M60.9399 15.24H57.8999V18.28H60.9399V15.24Z" fill="#9319BE"/>
<path d="M57.9 18.28H51.8V21.34H57.9V18.28Z" fill="#9319BE"/>
<path d="M57.9 12.2H51.8V15.24H57.9V12.2Z" fill="#9319BE"/>
<path d="M45.7 45.72V48.76H39.62V51.82H33.52V54.86H27.42V51.82H21.32V48.76H15.24V45.72H9.14V42.66H0V45.72H3.04V48.76H9.14V51.82H15.24V54.86H21.32V57.9H27.42V60.96H33.52V57.9H39.62V54.86H45.7V51.82H51.8V48.76H57.9V45.72H60.94V42.66H51.8V45.72H45.7Z" fill="#9319BE"/>
<path d="M45.7 36.58V39.62H39.62V42.66H33.52V45.72H27.42V42.66H21.32V39.62H15.24V36.58H9.14V33.52H0V36.58H3.04V39.62H9.14V42.66H15.24V45.72H21.32V48.76H27.42V51.82H33.52V48.76H39.62V45.72H45.7V42.66H51.8V39.62H57.9V36.58H60.94V33.52H51.8V36.58H45.7Z" fill="#9319BE"/>
<path d="M45.7 27.44V30.48H39.62V33.52H33.52V36.58H27.42V33.52H21.32V30.48H15.24V27.44H9.14V24.38H0V27.44H3.04V30.48H9.14V33.52H15.24V36.58H21.32V39.62H27.42V42.66H33.52V39.62H39.62V36.58H45.7V33.52H51.8V30.48H57.9V27.44H60.94V24.38H51.8V27.44H45.7Z" fill="#9319BE"/>
<path d="M51.8 21.34H45.7V24.38H51.8V21.34Z" fill="#9319BE"/>
<path d="M51.8 9.13998H45.7V12.2H51.8V9.13998Z" fill="#9319BE"/>
<path d="M45.7 24.38H39.62V27.44H45.7V24.38Z" fill="#9319BE"/>
<path d="M45.7 6.10001H39.62V9.14001H45.7V6.10001Z" fill="#9319BE"/>
<path d="M39.62 27.44H33.52V30.48H39.62V27.44Z" fill="#9319BE"/>
<path d="M39.62 3.06H33.52V6.1H39.62V3.06Z" fill="#9319BE"/>
<path d="M33.52 30.48H27.42V33.52H33.52V30.48Z" fill="#9319BE"/>
<path d="M33.52 0H27.42V3.06H33.52V0Z" fill="#9319BE"/>
<path d="M27.4201 27.44H21.3201V30.48H27.4201V27.44Z" fill="#9319BE"/>
<path d="M27.4201 3.06H21.3201V6.1H27.4201V3.06Z" fill="#9319BE"/>
<path d="M21.32 24.38H15.24V27.44H21.32V24.38Z" fill="#9319BE"/>
<path d="M21.32 6.10001H15.24V9.14001H21.32V6.10001Z" fill="#9319BE"/>
<path d="M15.24 21.34H9.14001V24.38H15.24V21.34Z" fill="#9319BE"/>
<path d="M15.24 9.13998H9.14001V12.2H15.24V9.13998Z" fill="#9319BE"/>
<path d="M9.14004 18.28H3.04004V21.34H9.14004V18.28Z" fill="#9319BE"/>
<path d="M9.14004 12.2H3.04004V15.24H9.14004V12.2Z" fill="#9319BE"/>
<path d="M3.04 15.24H0V18.28H3.04V15.24Z" fill="#9319BE"/>
</svg>
