<svg width="64" height="64" viewBox="0 0 64 64" fill="none" xmlns="http://www.w3.org/2000/svg">
<path d="M60.96 15.25H3.06V6.10999H0V57.91H3.06V18.29H60.96V57.91H64V6.10999H60.96V15.25Z" fill="#ECB22F"/>
<path d="M60.9601 57.91H3.06006V60.95H60.9601V57.91Z" fill="#ECB22F"/>
<path d="M54.8598 39.63H51.8198V48.77H54.8598V39.63Z" fill="#ECB22F"/>
<path d="M51.8198 48.77H48.7598V51.81H51.8198V48.77Z" fill="#ECB22F"/>
<path d="M51.8198 36.57H48.7598V39.63H51.8198V36.57Z" fill="#ECB22F"/>
<path d="M48.7601 51.81H39.6201V54.87H48.7601V51.81Z" fill="#ECB22F"/>
<path d="M48.7601 36.57V33.53H45.7201V21.35H9.14014V39.63H15.2401V36.57H12.2001V24.39H42.6801V33.53H39.6201V36.57H48.7601Z" fill="#ECB22F"/>
<path d="M39.6201 48.77H36.5801V51.81H39.6201V48.77Z" fill="#ECB22F"/>
<path d="M39.6201 36.57H36.5801V39.63H39.6201V36.57Z" fill="#ECB22F"/>
<path d="M36.58 39.63H33.52V48.77H36.58V39.63Z" fill="#ECB22F"/>
<path d="M21.3398 9.14999H18.2798V12.19H21.3398V9.14999Z" fill="#ECB22F"/>
<path d="M12.2001 42.67V45.73H9.14014V48.77H30.4801V39.63H27.4401V36.57H24.3801V33.53H21.3401V36.57H18.2801V39.63H15.2401V42.67H12.2001Z" fill="#ECB22F"/>
<path d="M15.2402 9.14999H12.2002V12.19H15.2402V9.14999Z" fill="#ECB22F"/>
<path d="M9.1401 9.14999H6.1001V12.19H9.1401V9.14999Z" fill="#ECB22F"/>
<path d="M60.9601 3.04999H3.06006V6.10999H60.9601V3.04999Z" fill="#ECB22F"/>
</svg>
