<svg width="64" height="64" viewBox="0 0 64 64" fill="none" xmlns="http://www.w3.org/2000/svg">
<path d="M62.4799 36.56H59.4199V60.94H62.4799V36.56Z" fill="#ECB22F"/>
<path d="M62.4799 21.34H59.4199V24.38H62.4799V21.34Z" fill="#ECB22F"/>
<path d="M59.4199 24.38H56.3799V27.42H59.4199V24.38Z" fill="#ECB22F"/>
<path d="M59.4199 18.28H56.3799V21.34H59.4199V18.28Z" fill="#ECB22F"/>
<path d="M59.4202 60.94H10.6602V64H59.4202V60.94Z" fill="#ECB22F"/>
<path d="M56.3798 27.42H53.3198V30.48H56.3798V27.42Z" fill="#ECB22F"/>
<path d="M56.3798 15.24H53.3198V18.28H56.3798V15.24Z" fill="#ECB22F"/>
<path d="M56.3801 39.62H41.1401V57.9H56.3801V39.62ZM53.3201 54.86H44.1801V42.66H53.3201V54.86Z" fill="#ECB22F"/>
<path d="M50.2801 33.52H47.2401V30.48H50.2801V27.42H53.3201V24.38H56.3801V21.34H53.3201V18.28H50.2801V15.24H47.2401V12.18H44.1801V15.24H41.1401V18.28H38.1001V21.34H35.0401V24.38H38.1001V27.42H41.1401V30.48H44.1801V33.52H35.0401V30.48H32.0001V27.42H28.9401V30.48H25.9001V33.52H22.8601V30.48H19.8001V33.52H7.62012V39.62H10.6601V36.56H59.4201V33.52H53.3201V30.48H50.2801V33.52Z" fill="#ECB22F"/>
<path d="M53.3203 12.18H50.2803V15.24H53.3203V12.18Z" fill="#ECB22F"/>
<path d="M50.2802 9.14001H47.2402V12.18H50.2802V9.14001Z" fill="#ECB22F"/>
<path d="M47.2402 6.10001H44.1802V9.14001H47.2402V6.10001Z" fill="#ECB22F"/>
<path d="M44.1801 9.14001H41.1401V12.18H44.1801V9.14001Z" fill="#ECB22F"/>
<path d="M41.1401 12.18H38.1001V15.24H41.1401V12.18Z" fill="#ECB22F"/>
<path d="M38.1 15.24H35.04V18.28H38.1V15.24Z" fill="#ECB22F"/>
<path d="M38.0999 39.62H22.8599V57.9H38.0999V39.62ZM35.0399 54.86H25.8999V42.66H35.0399V54.86Z" fill="#ECB22F"/>
<path d="M28.9399 24.38H31.9999V21.34H35.0399V18.28H31.9999V3.04001H28.9399V24.38Z" fill="#ECB22F"/>
<path d="M28.9399 24.38H25.8999V27.42H28.9399V24.38Z" fill="#ECB22F"/>
<path d="M25.8999 27.42H22.8599V30.48H25.8999V27.42Z" fill="#ECB22F"/>
<path d="M7.62012 24.38V30.48H10.6601V27.42H22.8601V24.38H7.62012Z" fill="#ECB22F"/>
<path d="M19.7998 45.72H16.7598V51.8H19.7998V45.72Z" fill="#ECB22F"/>
<path d="M16.7602 42.66H10.6602V45.72H16.7602V42.66Z" fill="#ECB22F"/>
<path d="M16.7602 51.8H10.6602V54.86H16.7602V51.8Z" fill="#ECB22F"/>
<path d="M25.9001 21.34V6.10001H7.62012V21.34H25.9001ZM10.6601 9.14001H22.8601V18.28H10.6601V9.14001Z" fill="#ECB22F"/>
<path d="M10.6601 57.9H7.62012V60.94H10.6601V57.9Z" fill="#ECB22F"/>
<path d="M10.6601 45.72H7.62012V51.8H10.6601V45.72Z" fill="#ECB22F"/>
<path d="M28.9401 0H4.56006V3.04H28.9401V0Z" fill="#ECB22F"/>
<path d="M7.62006 54.86H4.56006V57.9H7.62006V54.86Z" fill="#ECB22F"/>
<path d="M4.56002 42.66H7.62002V39.62H4.56002V3.04001H1.52002V54.86H4.56002V42.66Z" fill="#ECB22F"/>
</svg>
