<svg width="64" height="61" viewBox="0 0 64 61" fill="none" xmlns="http://www.w3.org/2000/svg">
<path d="M64 17.7792H60.4302V42.6745H64V17.7792Z" fill="#ECB22F"/>
<path d="M60.4302 42.6745L56.8837 42.6745V46.221H60.4302V42.6745Z" fill="#ECB22F"/>
<path d="M60.4302 14.2326H56.8837V17.7791L60.4302 17.7792V14.2326Z" fill="#ECB22F"/>
<path d="M56.8837 17.7791L49.7674 17.7792V21.3256H56.8837L56.8837 17.7791Z" fill="#ECB22F"/>
<path d="M56.8837 46.221L49.7674 46.2209V49.7907H56.8837L56.8837 46.221Z" fill="#ECB22F"/>
<path d="M53.3372 14.2325V10.6627H49.7674V7.11622H42.6745V10.6627H39.1047V14.2325H42.6745V17.779L49.7674 17.7792L49.7674 14.2325H53.3372Z" fill="#ECB22F"/>
<path d="M49.7674 21.3256L42.6744 21.3255V24.8953H49.7674V21.3256Z" fill="#ECB22F"/>
<path d="M49.7674 49.7907L42.6744 49.7908V53.3372H49.7674V49.7907Z" fill="#ECB22F"/>
<path d="M35.5582 60.4536V56.8838H42.6744L42.6744 53.3372L35.5582 53.3373V28.4419H28.4419V32.0117H31.9883V56.8838H28.4419V60.4536H35.5582Z" fill="#ECB22F"/>
<path d="M42.6744 24.8953L35.5581 24.8954L35.5582 28.4419L42.6744 28.4419L42.6744 24.8953Z" fill="#ECB22F"/>
<path d="M35.5582 21.3256H39.1046V17.7791H35.5582V14.2326H28.4419V17.7791H24.8954V21.3256H28.4419V24.8954L35.5581 24.8954L35.5582 21.3256Z" fill="#ECB22F"/>
<path d="M28.4419 0V3.56981H24.8954V7.11629H28.4419V10.6628H35.5582V7.11629H39.1046V3.56981H35.5582V0H28.4419Z" fill="#ECB22F"/>
<path d="M28.4418 53.3373H21.3255V56.8838L28.4419 56.8838L28.4418 53.3373Z" fill="#ECB22F"/>
<path d="M28.4419 24.8954L21.3255 24.8954V28.4419L28.4419 28.4419L28.4419 24.8954Z" fill="#ECB22F"/>
<path d="M21.3255 49.7908H14.2326V53.3372L21.3255 53.3373L21.3255 49.7908Z" fill="#ECB22F"/>
<path d="M21.3256 14.2325H24.8954V10.6627H21.3256V7.11622H14.2326V10.6627H10.6628V14.2325H14.2326V17.779H21.3256V14.2325Z" fill="#ECB22F"/>
<path d="M21.3255 21.3255H14.2326V24.8953L21.3255 24.8954L21.3255 21.3255Z" fill="#ECB22F"/>
<path d="M14.2326 46.2209H7.11631V49.7907L14.2326 49.7908L14.2326 46.2209Z" fill="#ECB22F"/>
<path d="M14.2326 17.779L7.11631 17.7792V21.3256L14.2326 21.3255L14.2326 17.779Z" fill="#ECB22F"/>
<path d="M7.11629 42.6745H3.54648V46.221L7.11631 46.2209L7.11629 42.6745Z" fill="#ECB22F"/>
<path d="M7.11629 14.2326H3.54648V17.7791L7.11631 17.7792L7.11629 14.2326Z" fill="#ECB22F"/>
<path d="M3.54648 17.7791L0 17.7792V42.6745L3.54648 42.6745V17.7791Z" fill="#ECB22F"/>
</svg>
