<svg width="64" height="64" viewBox="0 0 64 64" fill="none" xmlns="http://www.w3.org/2000/svg">
<path d="M62.4697 16.76H59.4297V19.8H62.4697V16.76Z" fill="#ECB22F"/>
<path d="M59.4296 19.8H53.3296V22.86H59.4296V19.8Z" fill="#ECB22F"/>
<path d="M59.4296 13.72H53.3296V16.76H59.4296V13.72Z" fill="#ECB22F"/>
<path d="M47.2298 47.24V50.28H41.1498V53.34H35.0498V56.38H28.9498V53.34H22.8498V50.28H16.7698V47.24H10.6698V44.18H1.52979V47.24H4.56979V50.28H10.6698V53.34H16.7698V56.38H22.8498V59.42H28.9498V62.48H35.0498V59.42H41.1498V56.38H47.2298V53.34H53.3298V50.28H59.4298V47.24H62.4698V44.18H53.3298V47.24H47.2298Z" fill="#ECB22F"/>
<path d="M47.2298 38.1V41.14H41.1498V44.18H35.0498V47.24H28.9498V44.18H22.8498V41.14H16.7698V38.1H10.6698V35.04H1.52979V38.1H4.56979V41.14H10.6698V44.18H16.7698V47.24H22.8498V50.28H28.9498V53.34H35.0498V50.28H41.1498V47.24H47.2298V44.18H53.3298V41.14H59.4298V38.1H62.4698V35.04H53.3298V38.1H47.2298Z" fill="#ECB22F"/>
<path d="M47.2298 28.96V32H41.1498V35.04H35.0498V38.1H28.9498V35.04H22.8498V32H16.7698V28.96H10.6698V25.9H1.52979V28.96H4.56979V32H10.6698V35.04H16.7698V38.1H22.8498V41.14H28.9498V44.18H35.0498V41.14H41.1498V38.1H47.2298V35.04H53.3298V32H59.4298V28.96H62.4698V25.9H53.3298V28.96H47.2298Z" fill="#ECB22F"/>
<path d="M53.33 22.86H47.23V25.9H53.33V22.86Z" fill="#ECB22F"/>
<path d="M53.33 10.66H47.23V13.72H53.33V10.66Z" fill="#ECB22F"/>
<path d="M47.2299 25.9H41.1499V28.96H47.2299V25.9Z" fill="#ECB22F"/>
<path d="M47.2299 7.62H41.1499V10.66H47.2299V7.62Z" fill="#ECB22F"/>
<path d="M41.1498 28.96H35.0498V32H41.1498V28.96Z" fill="#ECB22F"/>
<path d="M41.1498 4.57999H35.0498V7.61999H41.1498V4.57999Z" fill="#ECB22F"/>
<path d="M35.0497 32H28.9497V35.04H35.0497V32Z" fill="#ECB22F"/>
<path d="M35.0497 1.51999H28.9497V4.57999H35.0497V1.51999Z" fill="#ECB22F"/>
<path d="M28.9496 28.96H22.8496V32H28.9496V28.96Z" fill="#ECB22F"/>
<path d="M28.9496 4.57999H22.8496V7.61999H28.9496V4.57999Z" fill="#ECB22F"/>
<path d="M22.8495 25.9H16.7695V28.96H22.8495V25.9Z" fill="#ECB22F"/>
<path d="M22.8495 7.62H16.7695V10.66H22.8495V7.62Z" fill="#ECB22F"/>
<path d="M16.7699 22.86H10.6699V25.9H16.7699V22.86Z" fill="#ECB22F"/>
<path d="M16.7699 10.66H10.6699V13.72H16.7699V10.66Z" fill="#ECB22F"/>
<path d="M10.6698 19.8H4.56982V22.86H10.6698V19.8Z" fill="#ECB22F"/>
<path d="M10.6698 13.72H4.56982V16.76H10.6698V13.72Z" fill="#ECB22F"/>
<path d="M4.56979 16.76H1.52979V19.8H4.56979V16.76Z" fill="#ECB22F"/>
</svg>
