<svg width="64" height="64" viewBox="0 0 64 64" fill="none" xmlns="http://www.w3.org/2000/svg">
<path d="M60.9599 30.47H57.8999V36.57H54.8599V39.61H60.9599V48.75H63.9999V36.57H60.9599V30.47Z" fill="#ECB22F"/>
<path d="M57.9 45.71H54.86V48.75H45.72V45.71H42.66V48.75H33.52V45.71H30.48V48.75H21.34V45.71H18.28V48.75H9.14004V45.71H6.10004V48.75H3.04004V51.81H60.96V48.75H57.9V45.71Z" fill="#ECB22F"/>
<path d="M57.8999 24.37H54.8599V30.47H57.8999V24.37Z" fill="#ECB22F"/>
<path d="M54.8598 21.33H51.7998V24.37H54.8598V21.33Z" fill="#ECB22F"/>
<path d="M51.7998 24.37H48.7598V27.43H51.7998V24.37Z" fill="#ECB22F"/>
<path d="M51.7998 18.29H48.7598V21.33H51.7998V18.29Z" fill="#ECB22F"/>
<path d="M45.7202 30.47H42.6602V36.57H21.3402V30.47H18.2802V36.57H15.2402V39.61H48.7602V36.57H45.7202V30.47Z" fill="#ECB22F"/>
<path d="M48.7602 15.23H42.6602V18.29H48.7602V15.23Z" fill="#ECB22F"/>
<path d="M42.6601 27.43H39.6201V30.47H42.6601V27.43Z" fill="#ECB22F"/>
<path d="M42.6601 18.29H39.6201V21.33H42.6601V18.29Z" fill="#ECB22F"/>
<path d="M39.6199 24.37H24.3799V27.43H39.6199V24.37Z" fill="#ECB22F"/>
<path d="M30.4798 15.23V21.33H33.5198V15.23H42.6598V12.19H21.3398V15.23H30.4798Z" fill="#ECB22F"/>
<path d="M24.3798 27.43H21.3398V30.47H24.3798V27.43Z" fill="#ECB22F"/>
<path d="M24.3798 18.29H21.3398V21.33H24.3798V18.29Z" fill="#ECB22F"/>
<path d="M21.3402 15.23H15.2402V18.29H21.3402V15.23Z" fill="#ECB22F"/>
<path d="M15.2402 24.37H12.2002V27.43H15.2402V24.37Z" fill="#ECB22F"/>
<path d="M15.2402 18.29H12.2002V21.33H15.2402V18.29Z" fill="#ECB22F"/>
<path d="M12.2001 21.33H9.14014V24.37H12.2001V21.33Z" fill="#ECB22F"/>
<path d="M9.1401 24.37H6.1001V30.47H9.1401V24.37Z" fill="#ECB22F"/>
<path d="M3.04 39.61H9.14V36.57H6.1V30.47H3.04V36.57H0V48.75H3.04V39.61Z" fill="#ECB22F"/>
</svg>
