<svg width="64" height="64" viewBox="0 0 64 64" fill="none" xmlns="http://www.w3.org/2000/svg">
<g clip-path="url(#clip0_2807_882)">
<path d="M60.96 0H42.66V3.06H39.62V21.34H3.04V24.38H39.62V33.54H42.66V45.72H3.04V24.38H0V51.82H3.04V48.78H42.66V51.82H45.72V36.58H60.96V33.54H64V3.06H60.96V0ZM48.76 3.06H54.86V6.1H48.76V3.06ZM60.96 30.48H42.66V6.1H45.72V9.16H57.9V6.1H60.96V30.48Z" fill="#ECB22F"/>
<path d="M57.8999 18.3H54.8599V21.34H57.8999V18.3Z" fill="#ECB22F"/>
<path d="M57.8999 12.2H54.8599V15.24H57.8999V12.2Z" fill="#ECB22F"/>
<path d="M54.8598 21.34H48.7598V24.38H54.8598V21.34Z" fill="#ECB22F"/>
<path d="M48.7602 18.3H45.7202V21.34H48.7602V18.3Z" fill="#ECB22F"/>
<path d="M48.7602 12.2H45.7202V15.24H48.7602V12.2Z" fill="#ECB22F"/>
<path d="M3.04004 51.82V54.86H15.24V57.92H18.28V54.86H27.42V57.92H30.48V54.86H42.66V51.82H3.04004Z" fill="#ECB22F"/>
<path d="M39.6201 33.54H36.5801V36.58H39.6201V33.54Z" fill="#ECB22F"/>
<path d="M36.58 36.58H33.52V39.62H36.58V36.58Z" fill="#ECB22F"/>
<path d="M36.58 30.48H33.52V33.54H36.58V30.48Z" fill="#ECB22F"/>
<path d="M33.52 39.62H30.48V42.68H33.52V39.62Z" fill="#ECB22F"/>
<path d="M33.52 27.44H30.48V30.48H33.52V27.44Z" fill="#ECB22F"/>
<path d="M15.2402 60.96V57.92H12.2002V64H33.5202V57.92H30.4802V60.96H15.2402Z" fill="#ECB22F"/>
<path d="M27.4199 27.44H24.3799V33.54H27.4199V27.44Z" fill="#ECB22F"/>
<path d="M24.3798 33.54H21.3398V36.58H24.3798V33.54Z" fill="#ECB22F"/>
<path d="M21.3398 36.58H18.2798V42.68H21.3398V36.58Z" fill="#ECB22F"/>
<path d="M15.2402 39.62H12.2002V42.68H15.2402V39.62Z" fill="#ECB22F"/>
<path d="M15.2402 27.44H12.2002V30.48H15.2402V27.44Z" fill="#ECB22F"/>
<path d="M12.2001 36.58H9.14014V39.62H12.2001V36.58Z" fill="#ECB22F"/>
<path d="M12.2001 30.48H9.14014V33.54H12.2001V30.48Z" fill="#ECB22F"/>
<path d="M9.1401 33.54H6.1001V36.58H9.1401V33.54Z" fill="#ECB22F"/>
</g>
<defs>
<clipPath id="clip0_2807_882">
<rect width="64" height="64" fill="white"/>
</clipPath>
</defs>
</svg>
