<svg width="106" height="55" viewBox="0 0 106 55" fill="none" xmlns="http://www.w3.org/2000/svg">
<path d="M23.8879 24.6568C23.8879 24.9986 23.8727 25.2938 23.8425 25.5424C23.8425 25.791 23.8273 26.0862 23.797 26.428H6.85753C7.1906 28.0438 7.87181 29.2712 8.90117 30.1102C9.96084 30.9181 11.2627 31.3221 12.8068 31.3221C13.9573 31.3221 14.9867 31.1201 15.895 30.7162C16.8033 30.3122 17.7418 29.6596 18.7106 28.7585L22.6617 32.3475C21.5112 33.8079 20.1185 34.9577 18.4836 35.7967C16.8487 36.6047 14.9261 37.0084 12.716 37.0084C10.8994 37.0084 9.20395 36.6978 7.6296 36.0763C6.08549 35.4548 4.7382 34.5693 3.58772 33.4195C2.4675 32.2698 1.5895 30.9181 0.953697 29.3645C0.3179 27.7797 0 26.024 0 24.0975V24.0043C0 22.2331 0.287623 20.5551 0.86287 18.9703C1.46839 17.3856 2.30098 16.0028 3.36065 14.822C4.42032 13.6413 5.67678 12.709 7.13003 12.0254C8.61355 11.3418 10.2485 11 12.0347 11C14.0632 11 15.8193 11.3729 17.3028 12.1186C18.7864 12.8644 20.0125 13.8743 20.9813 15.1483C21.9805 16.3912 22.7071 17.8362 23.1612 19.4831C23.6457 21.0989 23.8879 22.7924 23.8879 24.5636V24.6568ZM17.1666 22C16.9546 20.4153 16.4097 19.1413 15.5317 18.178C14.6536 17.1836 13.488 16.6864 12.0347 16.6864C10.5815 16.6864 9.40074 17.1681 8.49247 18.1314C7.61445 19.0947 7.03921 20.3842 6.7667 22H17.1666ZM51.0582 24.6568C51.0582 24.9986 51.0433 25.2938 51.013 25.5424C51.013 25.791 50.9978 26.0862 50.9674 26.428H34.028C34.361 28.0438 35.0423 29.2712 36.0715 30.1102C37.1312 30.9181 38.4332 31.3221 39.9774 31.3221C41.1279 31.3221 42.1573 31.1201 43.0655 30.7162C43.9737 30.3122 44.9124 29.6596 45.881 28.7585L49.8321 32.3475C48.6816 33.8079 47.2889 34.9577 45.6539 35.7967C44.0193 36.6047 42.0965 37.0084 39.8863 37.0084C38.0698 37.0084 36.3745 36.6978 34.8 36.0763C33.256 35.4548 31.9087 34.5693 30.7582 33.4195C29.638 32.2698 28.76 30.9181 28.1242 29.3645C27.4884 27.7797 27.1705 26.024 27.1705 24.0975V24.0043C27.1705 22.2331 27.4581 20.5551 28.0333 18.9703C28.6388 17.3856 29.4714 16.0028 30.5311 14.822C31.5908 13.6413 32.8472 12.709 34.3005 12.0254C35.784 11.3418 37.419 11 39.2051 11C41.2338 11 42.9896 11.3729 44.4734 12.1186C45.9569 12.8644 47.183 13.8743 48.1519 15.1483C49.1509 16.3912 49.8777 17.8362 50.3318 19.4831C50.8163 21.0989 51.0582 22.7924 51.0582 24.5636V24.6568ZM44.3371 22C44.1252 20.4153 43.58 19.1413 42.7021 18.178C41.8243 17.1836 40.6586 16.6864 39.2051 16.6864C37.752 16.6864 36.5712 17.1681 35.6629 18.1314C34.7849 19.0947 34.2097 20.3842 33.9372 22H44.3371ZM80 30.8094C80 33.1709 79.7122 35.1752 79.137 36.8221C78.5921 38.5002 77.7442 39.8673 76.5937 40.9237C75.4736 41.9802 74.0657 42.7572 72.3704 43.2541C70.675 43.7514 68.6918 44 66.4212 44C64.4229 44 62.5157 43.767 60.6988 43.3009C58.8823 42.866 57.2022 42.2288 55.6579 41.3898L58.0196 36.0763C59.2909 36.791 60.5625 37.3502 61.8341 37.7543C63.1361 38.1584 64.6044 38.3603 66.2394 38.3603C68.6011 38.3603 70.342 37.7855 71.4621 36.6355C72.6126 35.4859 73.1878 33.7924 73.1878 31.5551V30.3433C72.1585 31.6173 71.0384 32.6116 69.8271 33.3263C68.6163 34.041 67.0872 34.3983 65.2404 34.3983C63.8173 34.3983 62.4549 34.1498 61.1529 33.6526C59.8513 33.1243 58.7008 32.363 57.7015 31.3687C56.7025 30.3743 55.9002 29.1625 55.2946 27.7331C54.7193 26.2726 54.4319 24.6102 54.4319 22.7458V22.6526C54.4319 20.7882 54.7345 19.1413 55.3401 17.7119C55.9457 16.2514 56.748 15.024 57.747 14.0297C58.746 13.0353 59.8965 12.2896 61.1985 11.7924C62.5005 11.2641 63.8476 11 65.2404 11C67.1176 11 68.6615 11.3574 69.8727 12.072C71.0836 12.7867 72.1585 13.6723 73.0971 14.7288V11.4661H80V30.8094ZM73.1878 22.7458V22.6526C73.1878 21.8136 73.0363 21.0368 72.7337 20.322C72.4311 19.6073 72.007 19.0014 71.4621 18.5043C70.9473 17.976 70.3268 17.572 69.6001 17.2924C68.8733 17.0127 68.0862 16.8729 67.2387 16.8729C66.3909 16.8729 65.6037 17.0127 64.877 17.2924C64.1806 17.572 63.5598 17.976 63.015 18.5043C62.5005 19.0014 62.0915 19.6073 61.7889 20.322C61.4859 21.0368 61.3348 21.8136 61.3348 22.6526V22.7458C61.3348 24.4859 61.8949 25.8842 63.015 26.9407C64.1351 27.9972 65.543 28.5255 67.2387 28.5255C68.0862 28.5255 68.8733 28.3856 69.6001 28.106C70.3268 27.8263 70.9473 27.4379 71.4621 26.9407C72.007 26.4125 72.4311 25.791 72.7337 25.0763C73.0363 24.3616 73.1878 23.5848 73.1878 22.7458Z" fill="#1A1A1A"/>
<path d="M100.587 8H106L87.4128 47H82L100.587 8Z" fill="#0115DF"/>
</svg>
