<svg width="64" height="61" viewBox="0 0 64 61" fill="none" xmlns="http://www.w3.org/2000/svg">
<path d="M64 17.7791H60.4302V42.6745H64V17.7791Z" fill="#2DB67D"/>
<path d="M60.4303 42.6745H56.8838V46.221H60.4303V42.6745Z" fill="#2DB67D"/>
<path d="M60.4303 14.2326H56.8838V17.7791H60.4303V14.2326Z" fill="#2DB67D"/>
<path d="M56.8836 17.7791H49.7673V21.3256H56.8836V17.7791Z" fill="#2DB67D"/>
<path d="M56.8836 46.2209H49.7673V49.7907H56.8836V46.2209Z" fill="#2DB67D"/>
<path d="M53.3373 14.2325V10.6627H49.7675V7.11621H42.6746V10.6627H39.1047V14.2325H42.6746V17.779H49.7675V14.2325H53.3373Z" fill="#2DB67D"/>
<path d="M49.7673 21.3255H42.6743V24.8953H49.7673V21.3255Z" fill="#2DB67D"/>
<path d="M49.7673 49.7908H42.6743V53.3373H49.7673V49.7908Z" fill="#2DB67D"/>
<path d="M35.5582 60.4536V56.8837H42.6745V53.3373H35.5582V28.4419H28.4419V32.0117H31.9884V56.8837H28.4419V60.4536H35.5582Z" fill="#2DB67D"/>
<path d="M42.6744 24.8954H35.5581V28.4419H42.6744V24.8954Z" fill="#2DB67D"/>
<path d="M35.558 21.3256H39.1045V17.7791H35.558V14.2326H28.4417V17.7791H24.8953V21.3256H28.4417V24.8954H35.558V21.3256Z" fill="#2DB67D"/>
<path d="M28.4417 0V3.56981H24.8953V7.11629H28.4417V10.6628H35.558V7.11629H39.1045V3.56981H35.558V0H28.4417Z" fill="#2DB67D"/>
<path d="M28.4417 53.3373H21.3254V56.8838H28.4417V53.3373Z" fill="#2DB67D"/>
<path d="M28.4417 24.8954H21.3254V28.4419H28.4417V24.8954Z" fill="#2DB67D"/>
<path d="M21.3256 49.7908H14.2327V53.3373H21.3256V49.7908Z" fill="#2DB67D"/>
<path d="M21.3256 14.2325H24.8954V10.6627H21.3256V7.11621H14.2327V10.6627H10.6628V14.2325H14.2327V17.779H21.3256V14.2325Z" fill="#2DB67D"/>
<path d="M21.3256 21.3255H14.2327V24.8953H21.3256V21.3255Z" fill="#2DB67D"/>
<path d="M14.2325 46.2209H7.11621V49.7907H14.2325V46.2209Z" fill="#2DB67D"/>
<path d="M14.2325 17.7791H7.11621V21.3256H14.2325V17.7791Z" fill="#2DB67D"/>
<path d="M7.1162 42.6745H3.54639V46.221H7.1162V42.6745Z" fill="#2DB67D"/>
<path d="M7.1162 14.2326H3.54639V17.7791H7.1162V14.2326Z" fill="#2DB67D"/>
<path d="M3.54648 17.7791H0V42.6745H3.54648V17.7791Z" fill="#2DB67D"/>
</svg>
