<svg width="61" height="64" viewBox="0 0 61 64" fill="none" xmlns="http://www.w3.org/2000/svg">
<path d="M60.9599 36.56H57.8999V60.94H60.9599V36.56Z" fill="#2DB67D"/>
<path d="M60.9599 21.34H57.8999V24.38H60.9599V21.34Z" fill="#2DB67D"/>
<path d="M57.9001 24.38H54.8601V27.42H57.9001V24.38Z" fill="#2DB67D"/>
<path d="M57.9001 18.28H54.8601V21.34H57.9001V18.28Z" fill="#2DB67D"/>
<path d="M57.8999 60.94H9.13989V64H57.8999V60.94Z" fill="#2DB67D"/>
<path d="M54.8601 27.42H51.8V30.48H54.8601V27.42Z" fill="#2DB67D"/>
<path d="M54.8601 15.24H51.8V18.28H54.8601V15.24Z" fill="#2DB67D"/>
<path d="M54.8601 39.62H39.6201V57.9H54.8601V39.62ZM51.8001 54.86H42.6601V42.66H51.8001V54.86Z" fill="#2DB67D"/>
<path d="M48.7601 33.52H45.7201V30.48H48.7601V27.42H51.8001V24.38H54.8601V21.34H51.8001V18.28H48.7601V15.24H45.7201V12.18H42.6601V15.24H39.6201V18.28H36.5801V21.34H33.5201V24.38H36.5801V27.42H39.6201V30.48H42.6601V33.52H33.5201V30.48H30.4801V27.42H27.4201V30.48H24.3801V33.52H21.3401V30.48H18.2801V33.52H6.1001V39.62H9.1401V36.56H57.9001V33.52H51.8001V30.48H48.7601V33.52Z" fill="#2DB67D"/>
<path d="M51.8 12.18H48.76V15.24H51.8V12.18Z" fill="#2DB67D"/>
<path d="M48.76 9.14001H45.72V12.18H48.76V9.14001Z" fill="#2DB67D"/>
<path d="M45.7199 6.10001H42.6599V9.14001H45.7199V6.10001Z" fill="#2DB67D"/>
<path d="M42.6601 9.14001H39.6201V12.18H42.6601V9.14001Z" fill="#2DB67D"/>
<path d="M39.6201 12.18H36.5801V15.24H39.6201V12.18Z" fill="#2DB67D"/>
<path d="M36.58 15.24H33.52V18.28H36.58V15.24Z" fill="#2DB67D"/>
<path d="M36.5801 39.62H21.3401V57.9H36.5801V39.62ZM33.5201 54.86H24.3801V42.66H33.5201V54.86Z" fill="#2DB67D"/>
<path d="M27.4199 24.38H30.4799V21.34H33.5199V18.28H30.4799V3.04001H27.4199V24.38Z" fill="#2DB67D"/>
<path d="M27.4199 24.38H24.3799V27.42H27.4199V24.38Z" fill="#2DB67D"/>
<path d="M24.3801 27.42H21.3401V30.48H24.3801V27.42Z" fill="#2DB67D"/>
<path d="M6.1001 24.38V30.48H9.1401V27.42H21.3401V24.38H6.1001Z" fill="#2DB67D"/>
<path d="M18.28 45.72H15.24V51.8H18.28V45.72Z" fill="#2DB67D"/>
<path d="M15.2399 42.66H9.13989V45.72H15.2399V42.66Z" fill="#2DB67D"/>
<path d="M15.2399 51.8H9.13989V54.86H15.2399V51.8Z" fill="#2DB67D"/>
<path d="M24.3801 21.34V6.10001H6.1001V21.34H24.3801ZM9.1401 9.14001H21.3401V18.28H9.1401V9.14001Z" fill="#2DB67D"/>
<path d="M9.1401 57.9H6.1001V60.94H9.1401V57.9Z" fill="#2DB67D"/>
<path d="M9.1401 45.72H6.1001V51.8H9.1401V45.72Z" fill="#2DB67D"/>
<path d="M27.42 0H3.04004V3.04H27.42V0Z" fill="#2DB67D"/>
<path d="M6.10004 54.86H3.04004V57.9H6.10004V54.86Z" fill="#2DB67D"/>
<path d="M3.04 42.66H6.1V39.62H3.04V3.04001H0V54.86H3.04V42.66Z" fill="#2DB67D"/>
</svg>
