<svg width="64" height="58" viewBox="0 0 64 58" fill="none" xmlns="http://www.w3.org/2000/svg">
<path d="M60.96 12.2H3.06V3.06H0V54.86H3.06V15.24H60.96V54.86H64V3.06H60.96V12.2Z" fill="#2DB67D"/>
<path d="M60.9601 54.86H3.06006V57.9H60.9601V54.86Z" fill="#2DB67D"/>
<path d="M54.8601 36.58H51.8201V45.72H54.8601V36.58Z" fill="#2DB67D"/>
<path d="M51.82 45.72H48.76V48.76H51.82V45.72Z" fill="#2DB67D"/>
<path d="M51.82 33.52H48.76V36.58H51.82V33.52Z" fill="#2DB67D"/>
<path d="M48.7601 48.76H39.6201V51.82H48.7601V48.76Z" fill="#2DB67D"/>
<path d="M48.7599 33.52V30.48H45.7199V18.3H9.13989V36.58H15.2399V33.52H12.1999V21.34H42.6799V30.48H39.6199V33.52H48.7599Z" fill="#2DB67D"/>
<path d="M39.6201 45.72H36.5801V48.76H39.6201V45.72Z" fill="#2DB67D"/>
<path d="M39.6201 33.52H36.5801V36.58H39.6201V33.52Z" fill="#2DB67D"/>
<path d="M36.58 36.58H33.52V45.72H36.58V36.58Z" fill="#2DB67D"/>
<path d="M21.34 6.10001H18.28V9.14001H21.34V6.10001Z" fill="#2DB67D"/>
<path d="M12.1999 39.62V42.68H9.13989V45.72H30.4799V36.58H27.4399V33.52H24.3799V30.48H21.3399V33.52H18.2799V36.58H15.2399V39.62H12.1999Z" fill="#2DB67D"/>
<path d="M15.24 6.10001H12.2V9.14001H15.24V6.10001Z" fill="#2DB67D"/>
<path d="M9.1401 6.10001H6.1001V9.14001H9.1401V6.10001Z" fill="#2DB67D"/>
<path d="M60.9601 0H3.06006V3.06H60.9601V0Z" fill="#2DB67D"/>
</svg>
