<svg width="64" height="64" viewBox="0 0 64 64" fill="none" xmlns="http://www.w3.org/2000/svg">
<path d="M63.9999 3.06H60.9399V18.3H63.9999V3.06Z" fill="#2DB67D"/>
<path d="M21.34 18.3V3.06H24.38V6.1H27.42V3.06H33.52V9.16H36.56V3.06H42.66V6.1H45.72V3.06H51.8V9.16H54.86V3.06H60.94V0H12.18V3.06H18.28V18.3H3.04V12.2H0V60.96H3.04V54.86H9.14V51.82H3.04V45.72H6.1V42.68H3.04V36.58H9.14V33.54H3.04V27.44H6.1V24.4H3.04V21.34H18.28V60.96H21.34V21.34H60.94V18.3H21.34Z" fill="#2DB67D"/>
<path d="M18.28 60.96H3.04004V64H18.28V60.96Z" fill="#2DB67D"/>
<path d="M12.1801 3.06H9.14014V6.1H12.1801V3.06Z" fill="#2DB67D"/>
<path d="M9.1401 6.10001H6.1001V9.16001H9.1401V6.10001Z" fill="#2DB67D"/>
<path d="M6.10004 9.16H3.04004V12.2H6.10004V9.16Z" fill="#2DB67D"/>
</svg>
