<svg width="40" height="40" viewBox="0 0 40 40" fill="none" xmlns="http://www.w3.org/2000/svg">
<g clip-path="url(#clip0_2741_6020)">
<path d="M11.7169 0.140028C9.58885 0.240361 8.13568 0.580026 6.86517 1.07902C5.5505 1.59152 4.43599 2.27902 3.32715 3.39185C2.21848 4.50468 1.53548 5.61984 1.02681 6.93684C0.534472 8.20984 0.200804 9.66433 0.106803 11.7935C0.0128027 13.9227 -0.00803072 14.6072 0.00246933 20.0385C0.0128027 25.4695 0.0368028 26.1503 0.13997 28.2839C0.241637 30.4114 0.579972 31.8643 1.07914 33.1351C1.59248 34.4499 2.27915 35.5639 3.39249 36.6731C4.50566 37.7823 5.62 38.4636 6.94 38.9731C8.21201 39.4647 9.66685 39.7999 11.7957 39.8931C13.9245 39.9864 14.6097 40.0081 20.0394 39.9976C25.4691 39.9872 26.1528 39.9631 28.2858 39.8619C30.4191 39.7607 31.8641 39.4199 33.1355 38.9231C34.4503 38.4088 35.5651 37.7231 36.6735 36.6096C37.7818 35.4959 38.4643 34.3799 38.9727 33.0623C39.4655 31.7903 39.8003 30.3356 39.8927 28.2083C39.986 26.0735 40.008 25.392 39.9977 19.9616C39.9872 14.5312 39.9627 13.8503 39.8615 11.7175C39.7603 9.58467 39.4215 8.13634 38.9227 6.86468C38.4087 5.54985 37.7227 4.43668 36.61 3.32669C35.4971 2.21669 34.3801 1.53469 33.0631 1.02753C31.7901 0.535026 30.3363 0.199527 28.2074 0.107528C26.0786 0.0155279 25.3934 -0.00830533 19.9617 0.00236131C14.53 0.0126946 13.85 0.0360279 11.7169 0.140028ZM11.9505 36.2951C10.0005 36.2103 8.94168 35.8863 8.23601 35.6151C7.30167 35.2551 6.636 34.8199 5.93283 34.1234C5.22949 33.4271 4.79766 32.7591 4.43282 31.8268C4.15882 31.1211 3.82882 30.0634 3.73765 28.1134C3.63849 26.006 3.61765 25.3731 3.60599 20.0335C3.59432 14.694 3.61482 14.0618 3.70715 11.9535C3.79049 10.0052 4.11649 8.94517 4.38716 8.23984C4.74716 7.30434 5.18083 6.63984 5.87883 5.93718C6.57683 5.23435 7.24284 4.80151 8.17601 4.43668C8.88101 4.16152 9.93852 3.83435 11.8877 3.74152C13.9969 3.64152 14.6289 3.62152 19.9677 3.60985C25.3066 3.59818 25.9403 3.61818 28.0503 3.71118C29.9986 3.79585 31.0591 4.11868 31.7636 4.39118C32.6983 4.75118 33.3636 5.18351 34.0663 5.88284C34.7691 6.58184 35.2023 7.24551 35.5671 8.18067C35.8426 8.8835 36.17 9.94067 36.262 11.8912C36.3623 14.0003 36.3851 14.6328 36.3946 19.9711C36.4043 25.3095 36.3855 25.9435 36.293 28.0511C36.208 30.0011 35.8846 31.0603 35.613 31.7668C35.253 32.7008 34.8191 33.3668 34.1206 34.0691C33.4223 34.7716 32.7571 35.2043 31.8235 35.5691C31.1195 35.8439 30.0606 36.1719 28.1131 36.2648C26.0038 36.3639 25.3718 36.3848 20.0309 36.3964C14.69 36.4081 14.0597 36.3864 11.9505 36.2951ZM28.2551 9.31067C28.2559 9.78538 28.3975 10.2492 28.6619 10.6435C28.9263 11.0377 29.3017 11.3447 29.7406 11.5256C30.1795 11.7065 30.6622 11.7531 31.1276 11.6597C31.5931 11.5662 32.0203 11.3368 32.3554 11.0005C32.6904 10.6642 32.9182 10.2361 33.0099 9.77034C33.1016 9.30457 33.0532 8.82206 32.8706 8.38384C32.6881 7.94562 32.3797 7.57137 31.9844 7.30844C31.5892 7.0455 31.1248 6.90569 30.6501 6.90667C30.0138 6.908 29.404 7.16199 28.9549 7.6128C28.5057 8.0636 28.254 8.67432 28.2551 9.31067ZM9.73085 20.02C9.74202 25.692 14.3485 30.2794 20.0192 30.2688C25.6903 30.2579 30.2809 25.652 30.2703 19.98C30.2594 14.308 25.6519 9.71917 19.9802 9.73033C14.3085 9.7415 9.72018 14.3487 9.73085 20.02ZM13.3334 20.0128C13.3308 18.6943 13.7192 17.4046 14.4496 16.3068C15.18 15.2091 16.2195 14.3525 17.4366 13.8455C18.6538 13.3385 19.994 13.2039 21.2877 13.4585C22.5814 13.7132 23.7705 14.3458 24.7047 15.2763C25.6389 16.2067 26.2762 17.3934 26.5361 18.686C26.7959 19.9787 26.6665 21.3194 26.1644 22.5386C25.6622 23.7577 24.8098 24.8006 23.7149 25.5354C22.6201 26.2701 21.3319 26.6636 20.0134 26.6663C19.1379 26.6681 18.2706 26.4975 17.461 26.1641C16.6514 25.8307 15.9155 25.3411 15.2952 24.7232C14.6749 24.1054 14.1823 23.3714 13.8457 22.5632C13.5091 21.7549 13.335 20.8883 13.3334 20.0128Z" fill="black"/>
</g>
<defs>
<clipPath id="clip0_2741_6020">
<rect width="40" height="40" fill="white"/>
</clipPath>
</defs>
</svg>
