<svg width="1412" height="923" viewBox="0 0 1412 923" fill="none" xmlns="http://www.w3.org/2000/svg">
<path fill-rule="evenodd" clip-rule="evenodd" d="M280.202 2.74702V5.49405H258.226V10.9881H241.743V16.4821H230.755V21.9762H219.767V27.4702H208.778V32.9643H197.79V38.4583H192.296V43.9524H186.802V49.4464H175.813V54.9405H170.319V60.4345H164.825V65.9286H159.331V71.4226H148.342V76.9167H142.848V82.4107H137.354V87.9048H131.86V93.3988H126.366V98.8929H120.872V104.387H115.377V109.881H109.883V120.869H98.8949V131.857H93.4008V137.351H87.9066V148.339H82.4125V159.327H76.9183V170.315H71.4241V192.292H65.93V203.28H60.4358V219.762H54.9416V230.75H49.4475V247.232H43.9533V263.714H38.4591V280.196H32.965V302.173H27.4708V318.655H21.9767V329.643H16.4825V351.619H10.9883V395.571H16.4825V412.054H21.9767V434.03H27.4708V445.018H32.965V461.5H38.4591V472.488H49.4475V477.982H54.9416V488.97H65.93V494.464H71.4241V505.452H76.9183V521.935H82.4125V538.417H93.4008V543.911H104.389V549.405H98.8949V554.899H104.389V598.851H93.4008V604.345H87.9066V615.333H98.8949V609.839H104.389V626.321H98.8949V631.816H87.9066V637.31H71.4241V642.804H76.9183V648.298H82.4125V653.792H93.4008V648.298H131.86V653.792H142.848V642.804H137.354V626.321H131.86V615.333H126.366V593.357H120.872V543.911H104.389V538.417H98.8949V532.923H87.9066V521.935H82.4125V516.44H93.4008V521.935H120.872V505.452H115.377V472.488H120.872V461.5H126.366V439.524H131.86V423.042H137.354V412.054H148.342V406.56H153.837V401.066H164.825V390.077H181.307V395.571H186.802V401.066H175.813V406.56H164.825V428.536H192.296V434.03H208.778V428.536H214.272V417.548H225.261V423.042H230.755V428.536H263.72V434.03H296.685V439.524H313.167V412.054H318.661V401.066H313.167V395.571H302.179V390.077H291.191V384.583H280.202V379.089H274.708V373.595H252.732V368.101H258.226V362.607H263.72V357.113H269.214V351.619H285.697V357.113H291.191V351.619H329.65V346.125H340.638V340.631H379.097V335.137H384.591V340.631H390.086V335.137H384.591V329.643H395.58V324.149H401.074V335.137H417.556V324.149H423.051V335.137H428.545V340.631H434.039V335.137H439.533V329.643H450.521V335.137H456.016V329.643H461.51V324.149H467.004V329.643H472.498V274.702H483.486V285.69H488.981V302.173H494.475V313.161H505.463V324.149H510.957V329.643H516.451V340.631H521.946V346.125H527.44V357.113H532.934V362.607H488.981V368.101H456.016V373.595H450.521V368.101H439.533V373.595H417.556V379.089H406.568V384.583H395.58V390.077H384.591V395.571H379.097V401.066H373.603V439.524H379.097V445.018H384.591V450.512H395.58V439.524H406.568V434.03H434.039V428.536H439.533V434.03H467.004V428.536H472.498V423.042H477.992V428.536H488.981V439.524H494.475V445.018H499.969V450.512H494.475V456.006H510.957V450.512H521.946V445.018H527.44V439.524H532.934V434.03H549.416V445.018H554.911V456.006H560.405V505.452H554.911V516.44H549.416V532.923H543.922V538.417H538.428V543.911H532.934V549.405H527.44V560.393H521.946V582.369H510.957V587.863H505.463V598.851H516.451V609.839H510.957V615.333H516.451V609.839H521.946V604.345H527.44V653.792H521.946V664.78H516.451V659.286H494.475V675.768H488.981V686.756H483.486V697.744H477.992V703.238H472.498V708.732H467.004V714.226H461.51V725.214H456.016V736.202H450.521V752.685H445.027V763.673H434.039V741.696H423.051V758.179H417.556V796.637H423.051V813.119H428.545V835.095H434.039V846.083H439.533V868.06H445.027V879.048H450.521V890.036H456.016V906.518H461.51V923H944.996V917.506H950.49V912.012H955.984V906.518H977.961V912.012H983.455V923H994.444V917.506H988.949V912.012H983.455V906.518H977.961V895.53H972.467V890.036H966.973V884.542H961.479V873.554H955.984V868.06H950.49V857.072H944.996V840.589H939.502V835.095H934.008V824.107H923.019V818.613H917.525V807.625H912.031V785.649H906.537V818.613H901.043V824.107H890.055V829.601H879.066V835.095H862.584V840.589H857.09V846.083H851.595V851.577H835.113V857.072H824.125V862.566H807.642V868.06H796.654V873.554H785.665V879.048H769.183V884.542H758.195V890.036H741.712V884.542H736.218V879.048H725.23V873.554H714.241V868.06H697.759V862.566H686.77V857.072H675.782V851.577H664.794V846.083H659.3V840.589H653.805V835.095H648.311V829.601H642.817V824.107H637.323V818.613H626.335V813.119H615.346V807.625H604.358V796.637H598.864V791.143H593.37V769.167H598.864V730.708H593.37V714.226H587.875V697.744H582.381V686.756H576.887V681.262H571.393V675.768H565.899V670.274H560.405V664.78H554.911V653.792H560.405V648.298H565.899V642.804H576.887V637.31H582.381V648.298H587.875V642.804H593.37V626.321H604.358V631.816H615.346V626.321H620.841V615.333H615.346V609.839H620.841V576.875H626.335V571.381H631.829V560.393H637.323V549.405H642.817V543.911H648.311V521.935H653.805V494.464H659.3V456.006H664.794V351.619H659.3V340.631H664.794V335.137H659.3V313.161H653.805V280.196H648.311V269.208H642.817V247.232H637.323V236.244H631.829V219.762H626.335V208.774H620.841V197.786H626.335V192.292H620.841V186.798H615.346V181.304H609.852V170.315H604.358V164.821H598.864V153.833H593.37V142.845H587.875V137.351H582.381V120.869H576.887V115.375H571.393V109.881H565.899V98.8929H560.405V87.9048H554.911V82.4107H549.416V76.9167H543.922V71.4226H538.428V65.9286H532.934V60.4345H521.946V54.9405H516.451V49.4464H527.44V54.9405H538.428V49.4464H532.934V43.9524H516.451V38.4583H505.463V32.9643H483.486V27.4702H488.981V21.9762H467.004V16.4821H456.016V21.9762H434.039V27.4702H428.545V21.9762H423.051V32.9643H417.556V27.4702H406.568V21.9762H401.074V16.4821H390.086V10.9881H379.097V5.49405H357.121V0H280.202V2.74702ZM582.381 153.833H587.875V159.327H582.381V156.58V153.833ZM477.992 181.304H483.486V192.292H477.992V230.75H467.004V197.786H472.498V192.292H477.992V186.798V181.304ZM593.37 181.304H598.864V186.798H593.37V184.051V181.304ZM280.202 186.798H302.179V192.292H291.191V197.786H280.202V203.28H263.72V208.774H252.732V197.786H258.226V192.292H269.214V197.786H274.708V192.292H280.202V189.545V186.798ZM598.864 192.292H604.358V197.786H609.852V203.28H604.358V197.786H598.864V195.039V192.292ZM483.486 208.774H488.981V219.762H483.486V214.268V208.774ZM576.887 208.774H582.381V214.268H576.887V211.521V208.774ZM335.144 241.738H357.121V247.232H346.132V252.726H335.144V258.22H318.661V252.726H313.167V247.232H324.156V252.726H329.65V247.232H335.144V244.485V241.738ZM296.685 340.631H307.673V346.125H296.685V343.378V340.631ZM236.249 357.113H241.743V362.607H236.249V359.86V357.113ZM192.296 390.077H208.778V395.571H192.296V392.824V390.077ZM214.272 390.077H219.767V395.571H214.272V392.824V390.077ZM1032.9 13.7351V16.4821H1027.41V21.9762H1010.93V27.4702H999.938V32.9643H977.961V38.4583H966.973V43.9524H955.984V49.4464H944.996V54.9405H934.008V60.4345H928.514V65.9286H917.525V71.4226H912.031V76.9167H901.043V87.9048H890.055V93.3988H884.56V98.8929H879.066V104.387H873.572V109.881H868.078V120.869H862.584V131.857H857.09V137.351H851.595V148.339H846.101V153.833H840.607V164.821H835.113V175.81H829.619V186.798H824.125V197.786H818.63V219.762H813.136V230.75H807.642V236.244H813.136V241.738H807.642V263.714H813.136V296.679H818.63V285.69H824.125V291.185H829.619V302.173H824.125V324.149H818.63V335.137H807.642V346.125H796.654V351.619H791.16V357.113H785.665V395.571H791.16V417.548H796.654V406.56H802.148V379.089H807.642V368.101H813.136V373.595H818.63V379.089H813.136V384.583H835.113V390.077H840.607V401.066H835.113V395.571H829.619V390.077H824.125V395.571H829.619V406.56H835.113V417.548H829.619V423.042H818.63V417.548H813.136V423.042H802.148V428.536H807.642V439.524H813.136V450.512H818.63V456.006H824.125V445.018H829.619V439.524H835.113V434.03H840.607V428.536H846.101V423.042H851.595V417.548H857.09V379.089H862.584V357.113H857.09V362.607H851.595V390.077H846.101V384.583H840.607V373.595H846.101V357.113H835.113V346.125H824.125V340.631H818.63V335.137H824.125V329.643H829.619V340.631H835.113V313.161H840.607V307.667H846.101V291.185H851.595V296.679H862.584V247.232H868.078V203.28H873.572V192.292H879.066V175.81H884.56V164.821H890.055V153.833H895.549V142.845H901.043V137.351H906.537V131.857H912.031V126.363H917.525V120.869H923.019V115.375H928.514V109.881H950.49V120.869H961.479V126.363H966.973V131.857H988.949V137.351H994.444V131.857H999.938V137.351H1005.43V131.857H999.938V126.363H1010.93V131.857H1016.42V137.351H1021.91V131.857H1027.41V126.363H1032.9V131.857H1043.89V137.351H1054.88V142.845H1060.37V148.339H1076.86V159.327H1082.35V164.821H1087.84V170.315H1098.83V175.81H1109.82V170.315H1120.81V175.81H1126.3V181.304H1142.79V186.798H1148.28V192.292H1153.77V203.28H1159.27V252.726H1153.77V263.714H1148.28V280.196H1159.27V285.69H1170.26V291.185H1175.75V302.173H1181.25V307.667H1186.74V318.655H1192.23V351.619H1203.22V368.101H1197.73V373.595H1186.74V379.089H1159.27V384.583H1131.8V390.077H1115.32V395.571H1104.33V401.066H1093.34V406.56H1087.84V412.054H1082.35V423.042H1087.84V428.536H1082.35V439.524H1087.84V445.018H1076.86V450.512H1087.84V516.44H1093.34V543.911H1087.84V593.357H1082.35V598.851H1076.86V604.345H1065.87V609.839H1060.37V615.333H1054.88V604.345H1049.39V609.839H1043.89V631.816H1038.4V648.298H1032.9V637.31H1021.91V659.286H1016.42V664.78H1010.93V642.804H1005.43V648.298H994.444V642.804H988.949V637.31H983.455V642.804H977.961V648.298H972.467V653.792H966.973V670.274H972.467V681.262H966.973V686.756H972.467V697.744H966.973V708.732H955.984V703.238H944.996V708.732H939.502V714.226H961.479V719.72H972.467V725.214H983.455V730.708H994.444V725.214H983.455V719.72H977.961V714.226H983.455V697.744H988.949V681.262H994.444V675.768H999.938V670.274H1005.43V675.768H1016.42V670.274H1054.88V675.768H1060.37V670.274H1065.87V675.768H1109.82V686.756H1120.81V692.25H1115.32V697.744H1071.36V703.238H1060.37V708.732H1054.88V714.226H1049.39V719.72H1038.4V730.708H1049.39V747.191H1060.37V741.696H1065.87V747.191H1082.35V758.179H1087.84V774.661H1082.35V763.673H1076.86V774.661H1065.87V769.167H1049.39V763.673H1038.4V769.167H1043.89V774.661H1049.39V785.649H1060.37V791.143H1065.87V796.637H1071.36V802.131H1076.86V807.625H1082.35V813.119H1087.84V818.613H1093.34V824.107H1098.83V829.601H1109.82V835.095H1115.32V846.083H1120.81V851.577H1126.3V857.072H1131.8V868.06H1126.3V884.542H1120.81V906.518H1115.32V912.012H1120.81V923H1412V818.613H1401.01V813.119H1395.52V807.625H1379.04V802.131H1362.55V796.637H1346.07V791.143H1340.58V785.649H1329.59V780.155H1324.09V769.167H1318.6V763.673H1307.61V758.179H1302.12V747.191H1296.62V736.202H1291.13V719.72H1285.63V686.756H1291.13V675.768H1296.62V659.286H1302.12V637.31H1307.61V593.357H1313.11V565.887H1318.6V560.393H1329.59V549.405H1335.08V538.417H1340.58V527.429H1346.07V499.958H1351.56V461.5H1357.06V412.054H1362.55V351.619H1357.06V340.631H1335.08V318.655H1329.59V247.232H1324.09V236.244H1329.59V230.75H1324.09V214.268H1318.6V208.774H1313.11V197.786H1307.61V186.798H1302.12V175.81H1296.62V170.315H1291.13V164.821H1285.63V148.339H1280.14V142.845H1274.65V131.857H1269.15V120.869H1263.66V115.375H1258.16V104.387H1247.18V98.8929H1241.68V93.3988H1236.19V87.9048H1230.69V82.4107H1225.2V76.9167H1219.7V71.4226H1214.21V65.9286H1203.22V60.4345H1197.73V54.9405H1192.23V49.4464H1181.25V43.9524H1170.26V38.4583H1153.77V32.9643H1142.79V27.4702H1126.3V21.9762H1109.82V16.4821H1082.35V10.9881H1049.39V16.4821H1043.89V10.9881H1032.9V13.7351ZM977.961 120.869H983.455V126.363H977.961V123.616V120.869ZM1230.69 417.548H1236.19V423.042H1230.69V420.295V417.548ZM1148.28 434.03H1159.27V439.524H1148.28V436.777V434.03ZM1098.83 450.512H1104.33V456.006H1098.83V453.259V450.512ZM1142.79 450.512H1164.76V456.006H1170.26V450.512H1175.75V456.006H1203.22V472.488H1214.21V477.982H1219.7V472.488H1236.19V456.006H1241.68V477.982H1252.67V483.476H1247.18V488.97H1252.67V494.464H1247.18V510.946H1241.68V516.44H1236.19V521.935H1230.69V527.429H1225.2V538.417H1203.22V549.405H1208.72V560.393H1203.22V565.887H1208.72V576.875H1203.22V582.369H1197.73V598.851H1170.26V593.357H1164.76V576.875H1159.27V571.381H1153.77V565.887H1148.28V538.417H1142.79V527.429H1148.28V510.946H1142.79V483.476H1148.28V477.982H1142.79V472.488H1137.29V466.994H1142.79V461.5H1137.29V456.006H1142.79V453.259V450.512ZM1109.82 461.5H1115.32V466.994H1109.82V464.247V461.5ZM1027.41 659.286H1032.9V664.78H1027.41V662.033V659.286ZM1175.75 747.191H1186.74V758.179H1181.25V769.167H1175.75V791.143H1170.26V846.083H1175.75V851.577H1181.25V862.566H1186.74V868.06H1192.23V884.542H1197.73V895.53H1186.74V890.036H1181.25V879.048H1175.75V884.542H1170.26V879.048H1164.76V873.554H1159.27V868.06H1153.77V857.072H1148.28V846.083H1142.79V835.095H1137.29V807.625H1142.79V791.143H1148.28V780.155H1153.77V769.167H1159.27V758.179H1164.76V752.685H1175.75V749.938V747.191ZM148.342 700.491V703.238H142.848V714.226H137.354V719.72H131.86V730.708H126.366V741.696H120.872V802.131H126.366V807.625H120.872V818.613H126.366V851.577H120.872V857.072H115.377V862.566H109.883V868.06H104.389V873.554H93.4008V879.048H82.4125V884.542H71.4241V890.036H60.4358V895.53H54.9416V901.024H38.4591V906.518H27.4708V912.012H16.4825V917.506H0V923H54.9416V912.012H60.4358V906.518H65.93V901.024H71.4241V895.53H76.9183V890.036H93.4008V895.53H109.883V901.024H120.872V906.518H126.366V901.024H131.86V884.542H137.354V879.048H142.848V873.554H153.837V868.06H186.802V857.072H192.296V846.083H203.284V840.589H208.778V829.601H197.79V824.107H192.296V818.613H181.307V813.119H175.813V796.637H170.319V774.661H164.825V736.202H159.331V703.238H153.837V697.744H148.342V700.491ZM554.911 68.6756V71.4226H560.405V65.9286H554.911V68.6756ZM626.335 167.568V170.315H631.829V164.821H626.335V167.568ZM631.829 211.521V214.268H642.817V208.774H631.829V211.521ZM862.584 346.125V351.619H868.078V340.631H862.584V346.125ZM890.055 381.836V384.583H895.549V390.077H901.043V395.571H912.031V401.066H923.019V406.56H934.008V412.054H928.514V417.548H917.525V423.042H912.031V439.524H906.537V445.018H917.525V439.524H934.008V434.03H939.502V428.536H950.49V434.03H955.984V439.524H961.479V445.018H983.455V450.512H988.949V445.018H983.455V439.524H994.444V445.018H999.938V450.512H1005.43V445.018H1016.42V434.03H1021.91V445.018H1032.9V417.548H1038.4V406.56H1043.89V401.066H1038.4V406.56H1027.41V412.054H1021.91V406.56H1010.93V401.066H983.455V395.571H966.973V390.077H939.502V384.583H923.019V379.089H917.525V384.583H912.031V379.089H890.055V381.836ZM955.984 395.571H961.479V406.56H934.008V401.066H955.984V398.318V395.571ZM934.008 412.054H939.502V417.548H934.008V414.801V412.054ZM961.479 423.042H966.973V428.536H961.479V425.789V423.042ZM857.09 425.789V428.536H862.584V423.042H857.09V425.789ZM862.584 436.777V439.524H868.078V434.03H862.584V436.777ZM461.51 442.271V445.018H467.004V439.524H461.51V442.271ZM868.078 456.006V461.5H873.572V450.512H868.078V456.006ZM1038.4 453.259V456.006H1032.9V461.5H1027.41V466.994H1021.91V472.488H1027.41V466.994H1032.9V472.488H1038.4V456.006H1043.89V450.512H1038.4V453.259ZM895.549 464.247V466.994H901.043V461.5H895.549V464.247ZM390.086 530.176V538.417H401.074V549.405H406.568V527.429H401.074V521.935H390.086V530.176ZM115.377 530.176V532.923H120.872V527.429H115.377V530.176ZM862.584 549.405V554.899H868.078V560.393H873.572V554.899H868.078V543.911H862.584V549.405ZM87.9066 552.152V554.899H93.4008V549.405H87.9066V552.152ZM406.568 557.646V560.393H390.086V565.887H384.591V571.381H379.097V576.875H373.603V582.369H368.109V587.863H362.615V593.357H357.121V598.851H346.132V593.357H340.638V598.851H329.65V593.357H324.156V587.863H318.661V582.369H313.167V576.875H302.179V587.863H307.673V593.357H313.167V598.851H324.156V604.345H329.65V609.839H335.144V620.827H340.638V637.31H379.097V631.816H384.591V637.31H395.58V631.816H401.074V609.839H406.568V593.357H412.062V565.887H406.568V560.393H412.062V554.899H406.568V557.646ZM93.4008 563.14V565.887H98.8949V560.393H93.4008V563.14ZM510.957 629.068V631.816H516.451V626.321H510.957V629.068ZM428.545 640.057V648.298H401.074V653.792H373.603V659.286H357.121V664.78H346.132V659.286H335.144V664.78H313.167V659.286H269.214V653.792H252.732V659.286H247.237V664.78H280.202V670.274H406.568V664.78H412.062V675.768H423.051V670.274H434.039V664.78H439.533V659.286H445.027V653.792H456.016V637.31H450.521V631.816H428.545V640.057ZM510.957 651.045V653.792H516.451V648.298H510.957V651.045ZM142.848 664.78V670.274H131.86V675.768H142.848V681.262H159.331V692.25H164.825V708.732H170.319V714.226H175.813V719.72H181.307V730.708H186.802V736.202H192.296V747.191H197.79V752.685H203.284V758.179H208.778V769.167H214.272V774.661H219.767V780.155H225.261V785.649H230.755V802.131H236.249V813.119H241.743V802.131H252.732V796.637H258.226V791.143H263.72V785.649H252.732V780.155H247.237V774.661H241.743V769.167H236.249V763.673H230.755V758.179H225.261V752.685H219.767V747.191H214.272V741.696H208.778V736.202H203.284V725.214H197.79V719.72H186.802V708.732H181.307V703.238H175.813V697.744H170.319V686.756H164.825V681.262H159.331V675.768H153.837V664.78H148.342V659.286H142.848V664.78ZM401.074 678.515V681.262H406.568V675.768H401.074V678.515ZM406.568 694.997V697.744H395.58V703.238H384.591V697.744H335.144V703.238H329.65V708.732H379.097V703.238H384.591V708.732H390.086V714.226H401.074V708.732H406.568V697.744H412.062V692.25H406.568V694.997ZM428.545 697.744V703.238H423.051V697.744H417.556V708.732H412.062V719.72H423.051V725.214H428.545V730.708H439.533V725.214H445.027V714.226H434.039V692.25H428.545V697.744ZM917.525 725.214V730.708H923.019V719.72H917.525V725.214ZM906.537 755.432V763.673H923.019V769.167H917.525V774.661H923.019V769.167H928.514V763.673H923.019V752.685H912.031V747.191H906.537V755.432ZM1071.36 755.432V758.179H1076.86V752.685H1071.36V755.432ZM934.008 766.42V769.167H939.502V763.673H934.008V766.42ZM955.984 785.649V791.143H961.479V796.637H966.973V802.131H972.467V791.143H966.973V785.649H961.479V780.155H955.984V785.649ZM357.121 788.396V791.143H362.615V785.649H357.121V788.396ZM384.591 832.348V840.589H390.086V851.577H395.58V835.095H390.086V824.107H384.591V832.348ZM1016.42 848.83V851.577H1021.91V857.072H1027.41V868.06H1032.9V857.072H1027.41V851.577H1021.91V846.083H1016.42V848.83ZM142.848 914.759V917.506H153.837V912.012H142.848V914.759ZM258.226 200.533V203.28H263.72V197.786H258.226V200.533ZM1148.28 486.223V488.97H1153.77V483.476H1148.28V486.223Z" fill="#9319BE" fill-opacity="0.2"/>
</svg>
