<svg width="40" height="40" viewBox="0 0 40 40" fill="none" xmlns="http://www.w3.org/2000/svg">
<g clip-path="url(#clip0_2741_6016)">
<path d="M4.5353 0C1.80204 0 0 1.86676 0 4.33356C0 6.73368 1.73433 8.66503 4.40093 8.66503C7.26752 8.66503 9.06747 6.73368 9.00081 4.33356C9.00081 1.86676 7.26856 0 4.5353 0ZM30.1325 11.4673C25.5327 11.4673 22.7338 14.133 21.6005 15.9998H21.4682L21.0672 12.0673H13.6684C13.7351 14.6008 13.8673 17.5342 13.8673 21.0011V40H22.3994V23.9325C22.3994 23.1325 22.4661 22.3335 22.6661 21.7334C23.3327 20.1333 24.7337 18.4655 27.067 18.4655C30.2003 18.4655 31.4002 20.9334 31.4002 24.5336V40H40V23.5346C40 15.2675 35.7324 11.4673 30.1325 11.4673ZM0.202077 12.0673V40H8.73415V12.0673H0.202077Z" fill="black"/>
</g>
<defs>
<clipPath id="clip0_2741_6016">
<rect width="40" height="40" fill="white"/>
</clipPath>
</defs>
</svg>
