<svg width="73" height="73" viewBox="0 0 73 73" fill="none" xmlns="http://www.w3.org/2000/svg">
<path d="M73 66.0416H66.0422V69.5319H73V66.0416Z" fill="#AD1DE0"/>
<path d="M66.0415 69.5304H62.574V72.9979H66.0415V69.5304Z" fill="#AD1DE0"/>
<path d="M62.5742 45.192H59.0839V48.6595H62.5742V52.1498H66.0417V34.7668H62.5742V45.192Z" fill="#AD1DE0"/>
<path d="M62.5745 66.0416H55.6168V69.5319H62.5745V66.0416Z" fill="#AD1DE0"/>
<path d="M62.5738 31.2977H59.0835V34.7652H62.5738V31.2977Z" fill="#AD1DE0"/>
<path d="M55.6163 62.5731H48.6585V66.0406H55.6163V62.5731Z" fill="#AD1DE0"/>
<path d="M52.1494 48.6592H55.6169V45.1917L59.0839 45.192L59.0844 41.7242H55.6169V31.299H59.0844V27.8087H55.6169V17.3834H52.1494V48.6592Z" fill="#AD1DE0"/>
<path d="M48.6582 69.5304H45.1907V72.9979H48.6582V69.5304Z" fill="#AD1DE0"/>
<path d="M48.6582 41.7237H45.1907V45.1912H48.6582V41.7237Z" fill="#AD1DE0"/>
<path d="M48.6582 34.7665H45.1907V38.234H48.6582V34.7665Z" fill="#AD1DE0"/>
<path d="M45.1915 62.5731H41.7012V69.5309L45.1907 69.5304L45.1915 62.5731Z" fill="#AD1DE0"/>
<path d="M45.1907 55.6157H31.2751V59.106H45.1907V55.6157Z" fill="#AD1DE0"/>
<path d="M45.1915 3.46849H41.7012V6.95879H45.1915V3.46849Z" fill="#AD1DE0"/>
<path d="M41.7008 0H34.7659V3.46748H41.7008V0Z" fill="#AD1DE0"/>
<path d="M45.1907 20.8506H41.7004V17.3831H34.7654V20.8506H38.2329V24.3409H34.7654V20.8506H31.2751V27.8084H34.7654V31.2987H41.7004V27.8084H45.1907V20.8506Z" fill="#AD1DE0"/>
<path d="M34.7654 62.573H31.2751V69.5308H34.7654V62.573Z" fill="#AD1DE0"/>
<path d="M24.3179 52.1485H27.8082V55.6159L31.2751 55.6157L31.2756 52.1485H45.1912L45.1907 55.6157L48.6587 55.6159V52.1485H52.149V48.6582H24.3179V52.1485Z" fill="#AD1DE0"/>
<path d="M34.7654 3.46839H31.2751V6.95868H34.7654V3.46839Z" fill="#AD1DE0"/>
<path d="M31.2751 69.5308L27.8082 69.5306V72.9981H31.2757L31.2751 69.5308Z" fill="#AD1DE0"/>
<path d="M27.8081 62.5731H20.8503V66.0406H27.8081V62.5731Z" fill="#AD1DE0"/>
<path d="M31.2756 10.425V6.95747H27.8082V10.425H24.3179V17.3827H27.8082V13.9152H48.6587V17.3827L52.1494 17.3834L52.149 10.425H48.6587V6.95747H45.1912V10.425H31.2756Z" fill="#AD1DE0"/>
<path d="M24.3179 17.3827L20.8506 17.3834V27.8087H17.3831V31.299H20.8506V41.7242H17.3831V45.1917H20.8506V48.6592H24.3181L24.3179 17.3827Z" fill="#AD1DE0"/>
<path d="M20.8502 66.0416H13.8924V69.5319H20.8502V66.0416Z" fill="#AD1DE0"/>
<path d="M17.3829 31.2977H13.8926V34.7652H17.3829V31.2977Z" fill="#AD1DE0"/>
<path d="M13.8927 69.5306H10.4253V72.9981H13.8927V69.5306Z" fill="#AD1DE0"/>
<path d="M13.8927 34.7668H10.4253V52.1498H13.8927V48.6595H17.383L17.3831 45.1917L13.8927 45.192V34.7668Z" fill="#AD1DE0"/>
<path d="M10.4253 66.0416H3.46757V69.5319H10.4253V66.0416Z" fill="#AD1DE0"/>
<path d="M3.46748 69.5306H0V72.9981H3.46748V69.5306Z" fill="#AD1DE0"/>
</svg>
